<?xml version="1.0" encoding="UTF-8" standalone="no"?>
<svg
   viewBox="0 0 74.387405 75.591309"
   height="75.591309"
   width="74.387405"
   xml:space="preserve"
   id="svg2"
   version="1.1"
   sodipodi:docname="election_commission.svg"
   inkscape:export-filename="election_commission.svg"
   inkscape:export-xdpi="129.05412"
   inkscape:export-ydpi="129.05412"
   inkscape:version="1.3 (0e150ed6c4, 2023-07-21)"
   xmlns:inkscape="http://www.inkscape.org/namespaces/inkscape"
   xmlns:sodipodi="http://sodipodi.sourceforge.net/DTD/sodipodi-0.dtd"
   xmlns="http://www.w3.org/2000/svg"
   xmlns:svg="http://www.w3.org/2000/svg"
   xmlns:rdf="http://www.w3.org/1999/02/22-rdf-syntax-ns#"
   xmlns:cc="http://creativecommons.org/ns#"
   xmlns:dc="http://purl.org/dc/elements/1.1/"><sodipodi:namedview
     id="namedview1"
     pagecolor="#ffffff"
     bordercolor="#000000"
     borderopacity="0.25"
     inkscape:showpageshadow="2"
     inkscape:pageopacity="0.0"
     inkscape:pagecheckerboard="0"
     inkscape:deskcolor="#d1d1d1"
     inkscape:zoom="3.3876702"
     inkscape:cx="37.193703"
     inkscape:cy="37.931673"
     inkscape:window-width="1366"
     inkscape:window-height="697"
     inkscape:window-x="-8"
     inkscape:window-y="-8"
     inkscape:window-maximized="1"
     inkscape:current-layer="svg2" /><metadata
     id="metadata8"><rdf:RDF><cc:Work
         rdf:about=""><dc:format>image/svg+xml</dc:format><dc:type
           rdf:resource="http://purl.org/dc/dcmitype/StillImage" /></cc:Work></rdf:RDF></metadata><defs
     id="defs6"><clipPath
       id="clipPath114"
       clipPathUnits="userSpaceOnUse"><path
         id="path112"
         d="M 0,0 H 455.669 V 688.139 H 0 Z" /></clipPath><clipPath
       id="clipPath290"
       clipPathUnits="userSpaceOnUse"><path
         id="path288"
         d="M 0,0 H 455.669 V 688.139 H 0 Z" /></clipPath><clipPath
       id="clipPath342"
       clipPathUnits="userSpaceOnUse"><path
         id="path340"
         d="M 0,0 H 455.669 V 688.139 H 0 Z" /></clipPath><clipPath
       id="clipPath538"
       clipPathUnits="userSpaceOnUse"><path
         id="path536"
         d="M 0,0 H 455.669 V 688.139 H 0 Z" /></clipPath><clipPath
       id="clipPath582"
       clipPathUnits="userSpaceOnUse"><path
         id="path580"
         d="M 0,0 H 455.669 V 688.139 H 0 Z" /></clipPath><clipPath
       id="clipPath694"
       clipPathUnits="userSpaceOnUse"><path
         id="path692"
         d="M 0,0 H 455.669 V 688.139 H 0 Z" /></clipPath><clipPath
       id="clipPath726"
       clipPathUnits="userSpaceOnUse"><path
         id="path724"
         d="M 0,0 H 455.669 V 688.139 H 0 Z" /></clipPath><clipPath
       id="clipPath846"
       clipPathUnits="userSpaceOnUse"><path
         id="path844"
         d="M 0,0 H 455.669 V 688.139 H 0 Z" /></clipPath></defs><g
     transform="matrix(1.3333333,0,0,-1.3333333,42.351295,47.757345)"
     id="g64"><path
       id="path66"
       style="fill:#ffffff;fill-opacity:1;fill-rule:nonzero;stroke:#ffffff;stroke-width:1.478;stroke-linecap:butt;stroke-linejoin:round;stroke-miterlimit:10;stroke-dasharray:none;stroke-opacity:1"
       d="m 0,0 10.238,4.206 0.003,17.448 -18.25,3.124 -10.212,-4.413 V 19.922 2.716 L 0,0 -0.02,17.137" /></g><g
     transform="matrix(1.3333333,0,0,-1.3333333,33.977825,17.774145)"
     id="g68"><path
       id="path70"
       style="fill:#ffffff;fill-opacity:1;fill-rule:nonzero;stroke:none"
       d="M 0,0 3.084,3.846 7.096,3.047 6.209,1.924 7.038,1.914 5.039,-1.096 Z" /></g><g
     transform="matrix(1.3333333,0,0,-1.3333333,33.977825,17.774145)"
     id="g72"><path
       id="path74"
       style="fill:none;stroke:#ffffff;stroke-width:1.478;stroke-linecap:butt;stroke-linejoin:round;stroke-miterlimit:10;stroke-dasharray:none;stroke-opacity:1"
       d="M 0,0 3.084,3.846 7.096,3.047 6.209,1.924 7.038,1.914 5.039,-1.096 Z" /></g><g
     transform="matrix(1.3333333,0,0,-1.3333333,14.843825,69.733745)"
     id="g76"><path
       id="path78"
       style="fill:#ffffff;fill-opacity:1;fill-rule:nonzero;stroke:none"
       d="M 0,0 -7.251,-2.187 -5.545,2.798 -8.958,4.952 0.045,7.176 1.002,5.141 Z" /></g><g
     transform="matrix(1.3333333,0,0,-1.3333333,14.843825,69.733745)"
     id="g80"><path
       id="path82"
       style="fill:none;stroke:#ffffff;stroke-width:1.478;stroke-linecap:butt;stroke-linejoin:round;stroke-miterlimit:10;stroke-dasharray:none;stroke-opacity:1"
       d="M 0,0 -7.251,-2.187 -5.545,2.798 -8.958,4.952 0.045,7.176 1.002,5.141 Z" /></g><g
     transform="matrix(1.3333333,0,0,-1.3333333,58.072765,69.784845)"
     id="g84"><path
       id="path86"
       style="fill:#ffffff;fill-opacity:1;fill-rule:nonzero;stroke:none"
       d="M 0,0 8.386,-2.097 6.315,2.711 10.353,4.961 0.973,7.214 0,4.8 Z" /></g><g
     transform="matrix(1.3333333,0,0,-1.3333333,58.072765,69.784845)"
     id="g88"><path
       id="path90"
       style="fill:none;stroke:#ffffff;stroke-width:1.478;stroke-linecap:butt;stroke-linejoin:round;stroke-miterlimit:10;stroke-dasharray:none;stroke-opacity:1"
       d="M 0,0 8.386,-2.097 6.315,2.711 10.353,4.961 0.973,7.214 0,4.8 Z" /></g><g
     transform="matrix(1.3333333,0,0,-1.3333333,42.383825,24.981345)"
     id="g92"><path
       id="path94"
       style="fill:#ffffff;fill-opacity:1;fill-rule:nonzero;stroke:none"
       d="M 0,0 -18.907,3.308 -8.08,7.996 -4.891,7.486 -4.995,6.945 -7.996,7.426 -16.983,3.532 -0.081,0.572 8.954,4.514 0.202,6.084 0.314,6.625 10.855,4.734 Z" /></g><g
     transform="matrix(1.3333333,0,0,-1.3333333,42.383825,24.981345)"
     id="g96"><path
       id="path98"
       style="fill:none;stroke:#ffffff;stroke-width:1.478;stroke-linecap:butt;stroke-linejoin:round;stroke-miterlimit:10;stroke-dasharray:none;stroke-opacity:1"
       d="M 0,0 -18.907,3.308 -8.08,7.996 -4.891,7.486 -4.995,6.945 -7.996,7.426 -16.983,3.532 -0.081,0.572 8.954,4.514 0.202,6.084 0.314,6.625 10.855,4.734 Z" /></g><g
     transform="matrix(1.3333333,0,0,-1.3333333,41.848365,22.996345)"
     id="g100"><path
       id="path102"
       style="fill:#ffffff;fill-opacity:1;fill-rule:nonzero;stroke:none"
       d="m 0,0 -14.774,2.406 7.057,3.098 2.534,-0.47 -0.119,-0.53 -2.334,0.432 -5.227,-2.295 12.78,-2.082 5.51,2.314 L 0.01,3.857 0.128,4.387 7.33,3.076 Z" /></g><g
     transform="matrix(1.3333333,0,0,-1.3333333,41.848365,22.996345)"
     id="g104"><path
       id="path106"
       style="fill:none;stroke:#ffffff;stroke-width:1.478;stroke-linecap:butt;stroke-linejoin:round;stroke-miterlimit:10;stroke-dasharray:none;stroke-opacity:1"
       d="m 0,0 -14.774,2.406 7.057,3.098 2.534,-0.47 -0.119,-0.53 -2.334,0.432 -5.227,-2.295 12.78,-2.082 5.51,2.314 L 0.01,3.857 0.128,4.387 7.33,3.076 Z" /></g><g
     id="g108"
     transform="matrix(1.3333333,0,0,-1.3333333,-129.81524,183.32325)"><g
       clip-path="url(#clipPath114)"
       id="g110"><g
         transform="translate(129.1416,121.6678)"
         id="g116"><path
           id="path118"
           style="fill:#ffffff;fill-opacity:1;fill-rule:nonzero;stroke:#ffffff;stroke-width:1.478;stroke-linecap:butt;stroke-linejoin:round;stroke-miterlimit:10;stroke-dasharray:none;stroke-opacity:1"
           d="m 0,0 c -0.302,0 -0.524,0.014 -0.595,0.017 l -0.02,0.005 -9.705,1.248 0.09,0.494 9.692,-1.248 c 0.84,-0.053 2.282,0.014 2.605,0.425 0.036,0.043 0.126,0.157 0,0.415 l -2.723,0.532 0.133,0.485 3,-0.582 0.065,-0.103 C 2.838,1.196 2.715,0.859 2.562,0.664 2.111,0.091 0.79,0 0,0" /></g></g></g><g
     transform="matrix(1.3333333,0,0,-1.3333333,42.110895,19.790845)"
     id="g120"><path
       id="path122"
       style="fill:#ffffff;fill-opacity:1;fill-rule:nonzero;stroke:none"
       d="M 0,0 -7.443,1.194 -7.33,1.658 0.113,0.466 Z" /></g><g
     transform="matrix(1.3333333,0,0,-1.3333333,42.110895,19.790845)"
     id="g124"><path
       id="path126"
       style="fill:none;stroke:#ffffff;stroke-width:1.478;stroke-linecap:butt;stroke-linejoin:round;stroke-miterlimit:10;stroke-dasharray:none;stroke-opacity:1"
       d="M 0,0 -7.443,1.194 -7.33,1.658 0.113,0.466 Z" /></g><g
     transform="matrix(1.3333333,0,0,-1.3333333,41.059425,19.436045)"
     id="g128"><path
       id="path130"
       style="fill:#ffffff;fill-opacity:1;fill-rule:nonzero;stroke:none"
       d="M 0,0 -0.494,0.279 1.298,2.959 -1.722,3.731 -3.891,0.812 -4.37,1.108 -1.968,4.346 2.193,3.281 Z" /></g><g
     transform="matrix(1.3333333,0,0,-1.3333333,41.059425,19.436045)"
     id="g132"><path
       id="path134"
       style="fill:none;stroke:#ffffff;stroke-width:1.478;stroke-linecap:butt;stroke-linejoin:round;stroke-miterlimit:10;stroke-dasharray:none;stroke-opacity:1"
       d="M 0,0 -0.494,0.279 1.298,2.959 -1.722,3.731 -3.891,0.812 -4.37,1.108 -1.968,4.346 2.193,3.281 Z" /></g><g
     transform="matrix(1.3333333,0,0,-1.3333333,34.276095,17.897245)"
     id="g136"><path
       id="path138"
       style="fill:#ffffff;fill-opacity:1;fill-rule:nonzero;stroke:none"
       d="M 0,0 -0.469,0.314 2.742,4.259 7.371,3.35 6.437,2.076 5.953,2.37 6.412,2.996 2.988,3.669 Z" /></g><g
     transform="matrix(1.3333333,0,0,-1.3333333,34.276095,17.897245)"
     id="g140"><path
       id="path142"
       style="fill:none;stroke:#ffffff;stroke-width:1.478;stroke-linecap:butt;stroke-linejoin:round;stroke-miterlimit:10;stroke-dasharray:none;stroke-opacity:1"
       d="M 0,0 -0.469,0.314 2.742,4.259 7.371,3.35 6.437,2.076 5.953,2.37 6.412,2.996 2.988,3.669 Z" /></g><g
     transform="matrix(1.3333333,0,0,-1.3333333,42.689025,48.254145)"
     id="g144"><path
       id="path146"
       style="fill:#ffffff;fill-opacity:1;fill-rule:nonzero;stroke:none"
       d="m 0,0 -18.854,2.771 v 17.904 h 0.747 V 3.375 L -0.747,0.824 V 17.456 H 0 Z" /></g><g
     transform="matrix(1.3333333,0,0,-1.3333333,42.689025,48.254145)"
     id="g148"><path
       id="path150"
       style="fill:none;stroke:#ffffff;stroke-width:1.478;stroke-linecap:butt;stroke-linejoin:round;stroke-miterlimit:10;stroke-dasharray:none;stroke-opacity:1"
       d="m 0,0 -18.854,2.771 v 17.904 h 0.747 V 3.375 L -0.747,0.824 V 17.456 H 0 Z" /></g><g
     transform="matrix(1.3333333,0,0,-1.3333333,42.756765,48.108045)"
     id="g152"><path
       id="path154"
       style="fill:#ffffff;fill-opacity:1;fill-rule:nonzero;stroke:none"
       d="m 0,0 -0.234,0.517 9.882,4.126 0.003,17.23 h 0.591 L 10.237,4.274 Z" /></g><g
     transform="matrix(1.3333333,0,0,-1.3333333,42.756765,48.108045)"
     id="g156"><path
       id="path158"
       style="fill:none;stroke:#ffffff;stroke-width:1.478;stroke-linecap:butt;stroke-linejoin:round;stroke-miterlimit:10;stroke-dasharray:none;stroke-opacity:1"
       d="m 0,0 -0.234,0.517 9.882,4.126 0.003,17.23 h 0.591 L 10.237,4.274 Z" /></g><g
     transform="matrix(1.3333333,0,0,-1.3333333,49.990895,7.0513453)"
     id="g160"><path
       id="path162"
       style="fill:#ffffff;fill-opacity:1;fill-rule:nonzero;stroke:#ffffff;stroke-width:1.478;stroke-linecap:butt;stroke-linejoin:round;stroke-miterlimit:10;stroke-dasharray:none;stroke-opacity:1"
       d="M 0,0 H -1.804 L -5.26,3.598 -1.804,3.929 -0.086,2.193" /></g><g
     transform="matrix(1.3333333,0,0,-1.3333333,49.923695,7.4361453)"
     id="g164"><path
       id="path166"
       style="fill:#ffffff;fill-opacity:1;fill-rule:nonzero;stroke:none"
       d="M 0,0 H -1.927 L -5.822,4.118 -1.68,4.52 0.124,2.665 -0.302,2.307 -1.913,3.96 -4.657,3.693 -1.666,0.532 H 0 Z" /></g><g
     transform="matrix(1.3333333,0,0,-1.3333333,49.923695,7.4361453)"
     id="g168"><path
       id="path170"
       style="fill:none;stroke:#ffffff;stroke-width:1.478;stroke-linecap:butt;stroke-linejoin:round;stroke-miterlimit:10;stroke-dasharray:none;stroke-opacity:1"
       d="M 0,0 H -1.927 L -5.822,4.118 -1.68,4.52 0.124,2.665 -0.302,2.307 -1.913,3.96 -4.657,3.693 -1.666,0.532 H 0 Z" /></g><g
     transform="matrix(1.3333333,0,0,-1.3333333,54.462495,10.371145)"
     id="g172"><path
       id="path174"
       style="fill:#ffffff;fill-opacity:1;fill-rule:nonzero;stroke:#ffffff;stroke-width:1.478;stroke-linecap:butt;stroke-linejoin:round;stroke-miterlimit:10;stroke-dasharray:none;stroke-opacity:1"
       d="M 0,0 H -2.044 L -4.197,4.44 -0.486,4.624 0.926,1.761" /></g><g
     transform="matrix(1.3333333,0,0,-1.3333333,54.447825,10.754745)"
     id="g176"><path
       id="path178"
       style="fill:#ffffff;fill-opacity:1;fill-rule:nonzero;stroke:none"
       d="M 0,0 H -2.235 L -4.645,4.992 -0.309,5.213 1.188,2.157 0.663,1.934 -0.669,4.653 -3.772,4.499 -1.864,0.539 H 0 Z" /></g><g
     transform="matrix(1.3333333,0,0,-1.3333333,54.447825,10.754745)"
     id="g180"><path
       id="path182"
       style="fill:none;stroke:#ffffff;stroke-width:1.478;stroke-linecap:butt;stroke-linejoin:round;stroke-miterlimit:10;stroke-dasharray:none;stroke-opacity:1"
       d="M 0,0 H -2.235 L -4.645,4.992 -0.309,5.213 1.188,2.157 0.663,1.934 -0.669,4.653 -3.772,4.499 -1.864,0.539 H 0 Z" /></g><g
     transform="matrix(1.3333333,0,0,-1.3333333,58.805825,15.554445)"
     id="g184"><path
       id="path186"
       style="fill:#ffffff;fill-opacity:1;fill-rule:nonzero;stroke:#ffffff;stroke-width:1.478;stroke-linecap:butt;stroke-linejoin:round;stroke-miterlimit:10;stroke-dasharray:none;stroke-opacity:1"
       d="M 0,0 H -1.904 L -3.542,5.265 0.174,5.526 1.045,2.763" /></g><g
     transform="matrix(1.3333333,0,0,-1.3333333,58.805825,15.941245)"
     id="g188"><path
       id="path190"
       style="fill:#ffffff;fill-opacity:1;fill-rule:nonzero;stroke:none"
       d="M 0,0 H -2.13 L -3.941,5.817 0.385,6.12 1.323,3.131 0.775,2.976 -0.034,5.547 -3.191,5.322 -1.701,0.544 H 0 Z" /></g><g
     transform="matrix(1.3333333,0,0,-1.3333333,58.805825,15.941245)"
     id="g192"><path
       id="path194"
       style="fill:none;stroke:#ffffff;stroke-width:1.478;stroke-linecap:butt;stroke-linejoin:round;stroke-miterlimit:10;stroke-dasharray:none;stroke-opacity:1"
       d="M 0,0 H -2.13 L -3.941,5.817 0.385,6.12 1.323,3.131 0.775,2.976 -0.034,5.547 -3.191,5.322 -1.701,0.544 H 0 Z" /></g><g
     transform="matrix(1.3333333,0,0,-1.3333333,62.680095,19.414345)"
     id="g196"><path
       id="path198"
       style="fill:#ffffff;fill-opacity:1;fill-rule:nonzero;stroke:#ffffff;stroke-width:1.478;stroke-linecap:butt;stroke-linejoin:round;stroke-miterlimit:10;stroke-dasharray:none;stroke-opacity:1"
       d="M 0,0 H -2.258 L -3.126,5.435 H 0.732 L 1.245,1.807" /></g><g
     transform="matrix(1.3333333,0,0,-1.3333333,62.686765,19.797945)"
     id="g200"><path
       id="path202"
       style="fill:#ffffff;fill-opacity:1;fill-rule:nonzero;stroke:none"
       d="M 0,0 H -2.523 L -3.484,6.008 H 0.989 L 1.535,2.123 0.971,2.053 0.485,5.469 H -2.818 L -2.031,0.544 H 0 Z" /></g><g
     transform="matrix(1.3333333,0,0,-1.3333333,62.686765,19.797945)"
     id="g204"><path
       id="path206"
       style="fill:none;stroke:#ffffff;stroke-width:1.478;stroke-linecap:butt;stroke-linejoin:round;stroke-miterlimit:10;stroke-dasharray:none;stroke-opacity:1"
       d="M 0,0 H -2.523 L -3.484,6.008 H 0.989 L 1.535,2.123 0.971,2.053 0.485,5.469 H -2.818 L -2.031,0.544 H 0 Z" /></g><g
     transform="matrix(1.3333333,0,0,-1.3333333,66.161295,24.787545)"
     id="g208"><path
       id="path210"
       style="fill:#ffffff;fill-opacity:1;fill-rule:nonzero;stroke:#ffffff;stroke-width:1.478;stroke-linecap:butt;stroke-linejoin:round;stroke-miterlimit:10;stroke-dasharray:none;stroke-opacity:1"
       d="M 0,0 H -2.372 V 5.602 L 1.618,5.471 V 0.957" /></g><g
     transform="matrix(1.3333333,0,0,-1.3333333,66.166095,25.168045)"
     id="g212"><path
       id="path214"
       style="fill:#ffffff;fill-opacity:1;fill-rule:nonzero;stroke:none"
       d="M 0,0 H -2.678 V 6.184 L 1.917,6.033 v -4.8 H 1.349 V 5.51 L -2.11,5.621 V 0.542 H 0 Z" /></g><g
     transform="matrix(1.3333333,0,0,-1.3333333,66.166095,25.168045)"
     id="g216"><path
       id="path218"
       style="fill:none;stroke:#ffffff;stroke-width:1.478;stroke-linecap:butt;stroke-linejoin:round;stroke-miterlimit:10;stroke-dasharray:none;stroke-opacity:1"
       d="M 0,0 H -2.678 V 6.184 L 1.917,6.033 v -4.8 H 1.349 V 5.51 L -2.11,5.621 V 0.542 H 0 Z" /></g><g
     transform="matrix(1.3333333,0,0,-1.3333333,66.284765,31.678945)"
     id="g220"><path
       id="path222"
       style="fill:#ffffff;fill-opacity:1;fill-rule:nonzero;stroke:#ffffff;stroke-width:1.478;stroke-linecap:butt;stroke-linejoin:round;stroke-miterlimit:10;stroke-dasharray:none;stroke-opacity:1"
       d="M 0,0 -1.708,0.701 0.651,6.269 4.006,4.741 2.852,1.323" /></g><g
     transform="matrix(1.3333333,0,0,-1.3333333,66.123425,32.017745)"
     id="g224"><path
       id="path226"
       style="fill:#ffffff;fill-opacity:1;fill-rule:nonzero;stroke:none"
       d="M 0,0 -1.975,0.809 0.614,6.915 4.497,5.152 3.258,1.497 2.706,1.664 3.791,4.868 0.921,6.169 -1.231,1.1 0.23,0.501 Z" /></g><g
     transform="matrix(1.3333333,0,0,-1.3333333,66.123425,32.017745)"
     id="g228"><path
       id="path230"
       style="fill:none;stroke:#ffffff;stroke-width:1.478;stroke-linecap:butt;stroke-linejoin:round;stroke-miterlimit:10;stroke-dasharray:none;stroke-opacity:1"
       d="M 0,0 -1.975,0.809 0.614,6.915 4.497,5.152 3.258,1.497 2.706,1.664 3.791,4.868 0.921,6.169 -1.231,1.1 0.23,0.501 Z" /></g><g
     transform="matrix(1.3333333,0,0,-1.3333333,64.779425,38.124045)"
     id="g232"><path
       id="path234"
       style="fill:#ffffff;fill-opacity:1;fill-rule:nonzero;stroke:#ffffff;stroke-width:1.478;stroke-linecap:butt;stroke-linejoin:round;stroke-miterlimit:10;stroke-dasharray:none;stroke-opacity:1"
       d="M 0,0 -1.463,1.232 2.824,6.703 6.062,4.328 3.423,0.436" /></g><g
     transform="matrix(1.3333333,0,0,-1.3333333,64.506095,38.366845)"
     id="g236"><path
       id="path238"
       style="fill:#ffffff;fill-opacity:1;fill-rule:nonzero;stroke:none"
       d="M 0,0 -1.664,1.396 2.976,7.293 6.672,4.595 3.881,0.496 3.386,0.789 5.889,4.469 3.089,6.514 -0.877,1.475 0.39,0.408 Z" /></g><g
     transform="matrix(1.3333333,0,0,-1.3333333,64.506095,38.366845)"
     id="g240"><path
       id="path242"
       style="fill:none;stroke:#ffffff;stroke-width:1.478;stroke-linecap:butt;stroke-linejoin:round;stroke-miterlimit:10;stroke-dasharray:none;stroke-opacity:1"
       d="M 0,0 -1.664,1.396 2.976,7.293 6.672,4.595 3.881,0.496 3.386,0.789 5.889,4.469 3.089,6.514 -0.877,1.475 0.39,0.408 Z" /></g><g
     transform="matrix(1.3333333,0,0,-1.3333333,61.359695,44.486845)"
     id="g244"><path
       id="path246"
       style="fill:#ffffff;fill-opacity:1;fill-rule:nonzero;stroke:#ffffff;stroke-width:1.478;stroke-linecap:butt;stroke-linejoin:round;stroke-miterlimit:10;stroke-dasharray:none;stroke-opacity:1"
       d="M 0,0 -1.086,1.007 4.511,6.258 7.888,2.916 4.119,-1.002" /></g><g
     transform="matrix(1.3333333,0,0,-1.3333333,67.147695,46.021545)"
     id="g248"><path
       id="path250"
       style="fill:#ffffff;fill-opacity:1;fill-rule:nonzero;stroke:none"
       d="M 0,0 -0.436,0.368 3.16,4.088 0.167,7.036 -5.019,2.188 -4.142,1.38 -4.556,0.989 -5.856,2.188 0.18,7.823 3.961,4.1 Z" /></g><g
     transform="matrix(1.3333333,0,0,-1.3333333,67.147695,46.021545)"
     id="g252"><path
       id="path254"
       style="fill:none;stroke:#ffffff;stroke-width:1.478;stroke-linecap:butt;stroke-linejoin:round;stroke-miterlimit:10;stroke-dasharray:none;stroke-opacity:1"
       d="M 0,0 -0.436,0.368 3.16,4.088 0.167,7.036 -5.019,2.188 -4.142,1.38 -4.556,0.989 -5.856,2.188 0.18,7.823 3.961,4.1 Z" /></g><g
     transform="matrix(1.3333333,0,0,-1.3333333,56.374225,50.689545)"
     id="g256"><path
       id="path258"
       style="fill:#ffffff;fill-opacity:1;fill-rule:nonzero;stroke:#ffffff;stroke-width:1.478;stroke-linecap:butt;stroke-linejoin:round;stroke-miterlimit:10;stroke-dasharray:none;stroke-opacity:1"
       d="M 0,0 -1.594,2.065 6.256,5.556 8.874,1.607 4.036,-1.286" /></g><g
     transform="matrix(1.3333333,0,0,-1.3333333,61.967695,52.703245)"
     id="g260"><path
       id="path262"
       style="fill:#ffffff;fill-opacity:1;fill-rule:nonzero;stroke:none"
       d="M 0,0 -0.321,0.46 4.284,3.214 1.956,6.73 -5.355,3.479 -3.962,1.678 -4.442,1.358 -6.246,3.688 2.18,7.437 5.094,3.042 Z" /></g><g
     transform="matrix(1.3333333,0,0,-1.3333333,61.967695,52.703245)"
     id="g264"><path
       id="path266"
       style="fill:none;stroke:#ffffff;stroke-width:1.478;stroke-linecap:butt;stroke-linejoin:round;stroke-miterlimit:10;stroke-dasharray:none;stroke-opacity:1"
       d="M 0,0 -0.321,0.46 4.284,3.214 1.956,6.73 -5.355,3.479 -3.962,1.678 -4.442,1.358 -6.246,3.688 2.18,7.437 5.094,3.042 Z" /></g><g
     transform="matrix(1.3333333,0,0,-1.3333333,48.640225,53.724345)"
     id="g268"><path
       id="path270"
       style="fill:#ffffff;fill-opacity:1;fill-rule:nonzero;stroke:none"
       d="m 0,0 2.951,-4.799 8.444,3.05 -3.116,4.723 z" /></g><g
     transform="matrix(1.3333333,0,0,-1.3333333,48.640225,53.724345)"
     id="g272"><path
       id="path274"
       style="fill:none;stroke:#ffffff;stroke-width:1.478;stroke-linecap:butt;stroke-linejoin:round;stroke-miterlimit:10;stroke-dasharray:none;stroke-opacity:1"
       d="m 0,0 2.951,-4.799 8.444,3.05 -3.116,4.723 z" /></g><g
     transform="matrix(1.3333333,0,0,-1.3333333,52.396625,60.598445)"
     id="g276"><path
       id="path278"
       style="fill:#ffffff;fill-opacity:1;fill-rule:nonzero;stroke:none"
       d="M 0,0 -3.255,5.304 5.588,8.486 9.027,3.267 Z M -2.4,5.017 0.259,0.684 8.149,3.54 5.341,7.802 Z" /></g><g
     transform="matrix(1.3333333,0,0,-1.3333333,52.396625,60.598445)"
     id="g280"><path
       id="path282"
       style="fill:none;stroke:#ffffff;stroke-width:1.478;stroke-linecap:butt;stroke-linejoin:round;stroke-miterlimit:10;stroke-dasharray:none;stroke-opacity:1"
       d="M 0,0 -3.255,5.304 5.588,8.486 9.027,3.267 Z M -2.4,5.017 0.259,0.684 8.149,3.54 5.341,7.802 Z" /></g><g
     id="g284"
     transform="matrix(1.3333333,0,0,-1.3333333,-129.81524,183.32325)"><g
       clip-path="url(#clipPath290)"
       id="g286"><g
         transform="translate(100.7728,82.5575)"
         id="g292"><path
           id="path294"
           style="fill:#ffffff;fill-opacity:1;fill-rule:nonzero;stroke:none"
           d="m 0,0 1.819,5.317 -3.686,2.324 0.496,0.2 c 0.208,0.085 5.158,2.086 9.13,2.255 L 7.962,10.107 9.004,7.892 8.464,7.667 7.583,9.532 c -3.106,-0.186 -6.868,-1.5 -8.211,-2 L 2.516,5.548 0.915,0.861 l 6.72,2.03 0.181,-0.53 z" /></g><g
         transform="translate(100.7728,82.5575)"
         id="g296"><path
           id="path298"
           style="fill:none;stroke:#ffffff;stroke-width:1.478;stroke-linecap:butt;stroke-linejoin:round;stroke-miterlimit:10;stroke-dasharray:none;stroke-opacity:1"
           d="m 0,0 1.819,5.317 -3.686,2.324 0.496,0.2 c 0.208,0.085 5.158,2.086 9.13,2.255 L 7.962,10.107 9.004,7.892 8.464,7.667 7.583,9.532 c -3.106,-0.186 -6.868,-1.5 -8.211,-2 L 2.516,5.548 0.915,0.861 l 6.72,2.03 0.181,-0.53 z" /></g><g
         transform="translate(107.6707,89.8081)"
         id="g300"><path
           id="path302"
           style="fill:#ffffff;fill-opacity:1;fill-rule:nonzero;stroke:#ffffff;stroke-width:1.478;stroke-linecap:butt;stroke-linejoin:round;stroke-miterlimit:10;stroke-dasharray:none;stroke-opacity:1"
           d="m 0,0 1.836,-7.919 c 0,0 8.094,1.842 15.772,1.842 7.676,0 15.516,-1.842 15.516,-1.842 L 35.458,0 c 0,0 -0.832,0.288 -2.493,0.644 C 30.169,1.239 25.037,2.02 17.608,1.922 5.761,1.768 0,0 0,0" /></g><g
         transform="translate(109.2816,81.5379)"
         id="g304"><path
           id="path306"
           style="fill:#ffffff;fill-opacity:1;fill-rule:nonzero;stroke:none"
           d="m 0,0 -1.959,8.461 0.255,0.077 c 0.06,0.019 5.94,1.788 17.698,1.942 7.369,0.095 12.488,-0.66 15.431,-1.29 1.662,-0.355 2.497,-0.641 2.534,-0.654 L 34.217,8.448 31.729,0.003 31.442,0.069 C 31.364,0.088 23.546,1.91 16,1.91 8.451,1.91 0.382,0.088 0.303,0.069 Z m 16,2.464 c 6.803,0 13.815,-1.461 15.304,-1.791 L 33.49,8.098 C 33.129,8.204 32.392,8.414 31.289,8.647 28.38,9.27 23.308,10.021 16.004,9.923 5.716,9.792 -0.015,8.416 -1.257,8.084 L 0.46,0.673 C 2.004,1.005 9.205,2.464 16,2.464" /></g><g
         transform="translate(109.2816,81.5379)"
         id="g308"><path
           id="path310"
           style="fill:none;stroke:#ffffff;stroke-width:1.478;stroke-linecap:butt;stroke-linejoin:round;stroke-miterlimit:10;stroke-dasharray:none;stroke-opacity:1"
           d="m 0,0 -1.959,8.461 0.255,0.077 c 0.06,0.019 5.94,1.788 17.698,1.942 7.369,0.095 12.488,-0.66 15.431,-1.29 1.662,-0.355 2.497,-0.641 2.534,-0.654 L 34.217,8.448 31.729,0.003 31.442,0.069 C 31.364,0.088 23.546,1.91 16,1.91 8.451,1.91 0.382,0.088 0.303,0.069 Z m 16,2.464 c 6.803,0 13.815,-1.461 15.304,-1.791 L 33.49,8.098 C 33.129,8.204 32.392,8.414 31.289,8.647 28.38,9.27 23.308,10.021 16.004,9.923 5.716,9.792 -0.015,8.416 -1.257,8.084 L 0.46,0.673 C 2.004,1.005 9.205,2.464 16,2.464" /></g><g
         transform="translate(149.8213,82.6018)"
         id="g312"><path
           id="path314"
           style="fill:#ffffff;fill-opacity:1;fill-rule:nonzero;stroke:none"
           d="m 0,0 -0.596,0.174 c -3.196,0.931 -6.806,1.911 -7.251,1.911 h -0.01 l -0.022,0.553 c 0.593,0.024 5.032,-1.234 6.865,-1.761 L -2.95,5.38 0.818,7.48 c -1.483,0.483 -5.643,1.389 -8.571,1.974 l -0.726,-1.679 -0.545,0.207 0.912,2.116 0.24,-0.05 C -6.998,9.873 0.686,8.328 1.625,7.751 L 2.022,7.508 -2.213,5.145 Z" /></g><g
         transform="translate(149.8213,82.6018)"
         id="g316"><path
           id="path318"
           style="fill:none;stroke:#ffffff;stroke-width:1.478;stroke-linecap:butt;stroke-linejoin:round;stroke-miterlimit:10;stroke-dasharray:none;stroke-opacity:1"
           d="m 0,0 -0.596,0.174 c -3.196,0.931 -6.806,1.911 -7.251,1.911 h -0.01 l -0.022,0.553 c 0.593,0.024 5.032,-1.234 6.865,-1.761 L -2.95,5.38 0.818,7.48 c -1.483,0.483 -5.643,1.389 -8.571,1.974 l -0.726,-1.679 -0.545,0.207 0.912,2.116 0.24,-0.05 C -6.998,9.873 0.686,8.328 1.625,7.751 L 2.022,7.508 -2.213,5.145 Z" /></g></g></g><g
     transform="matrix(1.3333333,0,0,-1.3333333,60.775965,63.384045)"
     id="g320"><path
       id="path322"
       style="fill:#ffffff;fill-opacity:1;fill-rule:nonzero;stroke:none"
       d="M 0,0 -1.291,2.308 -0.837,2.551 0.454,0.243 Z" /></g><g
     transform="matrix(1.3333333,0,0,-1.3333333,60.775965,63.384045)"
     id="g324"><path
       id="path326"
       style="fill:none;stroke:#ffffff;stroke-width:1.478;stroke-linecap:butt;stroke-linejoin:round;stroke-miterlimit:10;stroke-dasharray:none;stroke-opacity:1"
       d="M 0,0 -1.291,2.308 -0.837,2.551 0.454,0.243 Z" /></g><g
     transform="matrix(1.3333333,0,0,-1.3333333,13.993165,63.347645)"
     id="g328"><path
       id="path330"
       style="fill:#ffffff;fill-opacity:1;fill-rule:nonzero;stroke:none"
       d="M 0,0 -0.462,0.192 0.473,2.496 0.935,2.304 Z" /></g><g
     transform="matrix(1.3333333,0,0,-1.3333333,13.993165,63.347645)"
     id="g332"><path
       id="path334"
       style="fill:none;stroke:#ffffff;stroke-width:1.478;stroke-linecap:butt;stroke-linejoin:round;stroke-miterlimit:10;stroke-dasharray:none;stroke-opacity:1"
       d="M 0,0 -0.462,0.192 0.473,2.496 0.935,2.304 Z" /></g><g
     id="g336"
     transform="matrix(1.3333333,0,0,-1.3333333,-129.81524,183.32325)"><g
       clip-path="url(#clipPath342)"
       id="g338"><g
         transform="translate(117.2246,88.6297)"
         id="g344"><path
           id="path346"
           style="fill:#ffffff;fill-opacity:1;fill-rule:nonzero;stroke:none"
           d="m 0,0 -0.837,-0.088 0.404,-3.278 c -0.049,0.05 -0.118,0.123 -0.208,0.22 -0.035,0.063 -0.091,0.147 -0.17,0.26 -0.205,0.263 -0.455,0.473 -0.761,0.62 -0.307,0.151 -0.631,0.22 -0.973,0.208 l -0.509,0.53 c 0.605,0.505 1.24,0.902 1.911,1.187 l -0.027,0.215 -2.2,-0.234 -0.371,0.29 3.366,0.359 z m -0.877,-2.511 -0.207,1.668 c -0.386,-0.175 -0.799,-0.433 -1.234,-0.775 0.615,-0.175 1.094,-0.473 1.441,-0.893" /></g><g
         transform="translate(117.2246,88.6297)"
         id="g348"><path
           id="path350"
           style="fill:none;stroke:#ffffff;stroke-width:1.478;stroke-linecap:butt;stroke-linejoin:round;stroke-miterlimit:10;stroke-dasharray:none;stroke-opacity:1"
           d="m 0,0 -0.837,-0.088 0.404,-3.278 c -0.049,0.05 -0.118,0.123 -0.208,0.22 -0.035,0.063 -0.091,0.147 -0.17,0.26 -0.205,0.263 -0.455,0.473 -0.761,0.62 -0.307,0.151 -0.631,0.22 -0.973,0.208 l -0.509,0.53 c 0.605,0.505 1.24,0.902 1.911,1.187 l -0.027,0.215 -2.2,-0.234 -0.371,0.29 3.366,0.359 z m -0.877,-2.511 -0.207,1.668 c -0.386,-0.175 -0.799,-0.433 -1.234,-0.775 0.615,-0.175 1.094,-0.473 1.441,-0.893" /></g><g
         transform="translate(118.9845,88.7787)"
         id="g352"><path
           id="path354"
           style="fill:#ffffff;fill-opacity:1;fill-rule:nonzero;stroke:none"
           d="m 0,0 -0.81,-0.063 0.271,-3.384 -0.339,0.312 -0.194,2.421 c -0.015,0.19 -0.095,0.342 -0.242,0.461 -0.146,0.119 -0.314,0.157 -0.503,0.116 l -0.354,0.299 c 0.098,0.018 0.187,0.033 0.269,0.041 0.281,0.018 0.491,-0.041 0.629,-0.193 0.081,-0.08 0.186,-0.276 0.322,-0.59 -0.122,0.426 -0.202,0.895 -0.244,1.403 L -1.061,0.727 C -1.022,0.525 -0.947,0.37 -0.837,0.266 l 0.488,0.036 z" /></g><g
         transform="translate(118.9845,88.7787)"
         id="g356"><path
           id="path358"
           style="fill:none;stroke:#ffffff;stroke-width:1.478;stroke-linecap:butt;stroke-linejoin:round;stroke-miterlimit:10;stroke-dasharray:none;stroke-opacity:1"
           d="m 0,0 -0.81,-0.063 0.271,-3.384 -0.339,0.312 -0.194,2.421 c -0.015,0.19 -0.095,0.342 -0.242,0.461 -0.146,0.119 -0.314,0.157 -0.503,0.116 l -0.354,0.299 c 0.098,0.018 0.187,0.033 0.269,0.041 0.281,0.018 0.491,-0.041 0.629,-0.193 0.081,-0.08 0.186,-0.276 0.322,-0.59 -0.122,0.426 -0.202,0.895 -0.244,1.403 L -1.061,0.727 C -1.022,0.525 -0.947,0.37 -0.837,0.266 l 0.488,0.036 z" /></g><g
         transform="translate(120.8845,88.2123)"
         id="g360"><path
           id="path362"
           style="fill:#ffffff;fill-opacity:1;fill-rule:nonzero;stroke:none"
           d="m 0,0 c 0.01,-0.133 -0.03,-0.273 -0.115,-0.42 -0.085,-0.151 -0.187,-0.253 -0.306,-0.301 -0.046,-0.02 -0.123,-0.033 -0.226,-0.038 -0.203,-0.009 -0.382,0.055 -0.538,0.196 -0.154,0.143 -0.239,0.312 -0.25,0.513 -0.008,0.18 0.056,0.347 0.194,0.508 0.138,0.163 0.299,0.25 0.48,0.26 0.199,0.01 0.374,-0.058 0.522,-0.202 C -0.088,0.373 -0.01,0.2 0,0 m 0.734,-2.979 c -0.543,0.463 -1.168,0.906 -1.878,1.334 l -0.04,0.724 c 0.508,-0.358 1.143,-0.954 1.902,-1.783 z M -0.337,0.148 C -0.347,0.325 -0.423,0.405 -0.568,0.398 -0.712,0.391 -0.835,0.32 -0.942,0.18 -1.051,0.045 -1.1,-0.09 -1.093,-0.23 c 0.01,-0.159 0.076,-0.236 0.203,-0.228 0.076,0.005 0.178,0.052 0.309,0.143 0.126,0.087 0.203,0.169 0.229,0.245 0.016,0.039 0.018,0.113 0.015,0.218" /></g><g
         transform="translate(120.8845,88.2123)"
         id="g364"><path
           id="path366"
           style="fill:none;stroke:#ffffff;stroke-width:1.478;stroke-linecap:butt;stroke-linejoin:round;stroke-miterlimit:10;stroke-dasharray:none;stroke-opacity:1"
           d="m 0,0 c 0.01,-0.133 -0.03,-0.273 -0.115,-0.42 -0.085,-0.151 -0.187,-0.253 -0.306,-0.301 -0.046,-0.02 -0.123,-0.033 -0.226,-0.038 -0.203,-0.009 -0.382,0.055 -0.538,0.196 -0.154,0.143 -0.239,0.312 -0.25,0.513 -0.008,0.18 0.056,0.347 0.194,0.508 0.138,0.163 0.299,0.25 0.48,0.26 0.199,0.01 0.374,-0.058 0.522,-0.202 C -0.088,0.373 -0.01,0.2 0,0 m 0.734,-2.979 c -0.543,0.463 -1.168,0.906 -1.878,1.334 l -0.04,0.724 c 0.508,-0.358 1.143,-0.954 1.902,-1.783 z M -0.337,0.148 C -0.347,0.325 -0.423,0.405 -0.568,0.398 -0.712,0.391 -0.835,0.32 -0.942,0.18 -1.051,0.045 -1.1,-0.09 -1.093,-0.23 c 0.01,-0.159 0.076,-0.236 0.203,-0.228 0.076,0.005 0.178,0.052 0.309,0.143 0.126,0.087 0.203,0.169 0.229,0.245 0.016,0.039 0.018,0.113 0.015,0.218" /></g><g
         transform="translate(125.5298,88.9452)"
         id="g368"><path
           id="path370"
           style="fill:#ffffff;fill-opacity:1;fill-rule:nonzero;stroke:none"
           d="m 0,0 -0.86,-0.015 0.058,-3.272 -0.358,0.305 -0.03,1.771 c -0.003,0.102 -0.05,0.197 -0.146,0.282 -0.094,0.085 -0.197,0.128 -0.308,0.125 -0.185,-0.002 -0.278,-0.102 -0.274,-0.3 0,-0.022 0.011,-0.095 0.038,-0.22 l -0.146,-0.052 v 0.01 c 0,0.022 -0.024,0.07 -0.069,0.14 -0.101,0.145 -0.195,0.245 -0.282,0.302 -0.11,0.072 -0.245,0.108 -0.412,0.105 -0.165,-0.007 -0.312,-0.062 -0.437,-0.172 -0.122,-0.11 -0.185,-0.24 -0.182,-0.395 0.004,-0.255 0.161,-0.402 0.465,-0.444 -0.071,0.077 -0.107,0.162 -0.107,0.244 -0.002,0.103 0.034,0.188 0.109,0.25 0.076,0.068 0.167,0.1 0.279,0.1 0.128,0.005 0.235,-0.05 0.318,-0.16 0.083,-0.113 0.122,-0.232 0.126,-0.36 0,-0.112 -0.058,-0.205 -0.184,-0.279 -0.104,-0.065 -0.218,-0.098 -0.341,-0.1 -0.302,-0.005 -0.539,0.072 -0.718,0.234 -0.177,0.163 -0.27,0.382 -0.275,0.657 -0.003,0.228 0.061,0.425 0.19,0.597 0.142,0.193 0.334,0.293 0.567,0.295 0.277,0.005 0.526,-0.122 0.746,-0.384 0,0.069 0.045,0.149 0.141,0.246 0.095,0.093 0.18,0.143 0.251,0.143 0.29,0.005 0.505,-0.179 0.644,-0.552 l -0.015,0.882 -2.676,-0.04 -0.365,0.319 3.887,0.061 z" /></g><g
         transform="translate(125.5298,88.9452)"
         id="g372"><path
           id="path374"
           style="fill:none;stroke:#ffffff;stroke-width:1.478;stroke-linecap:butt;stroke-linejoin:round;stroke-miterlimit:10;stroke-dasharray:none;stroke-opacity:1"
           d="m 0,0 -0.86,-0.015 0.058,-3.272 -0.358,0.305 -0.03,1.771 c -0.003,0.102 -0.05,0.197 -0.146,0.282 -0.094,0.085 -0.197,0.128 -0.308,0.125 -0.185,-0.002 -0.278,-0.102 -0.274,-0.3 0,-0.022 0.011,-0.095 0.038,-0.22 l -0.146,-0.052 v 0.01 c 0,0.022 -0.024,0.07 -0.069,0.14 -0.101,0.145 -0.195,0.245 -0.282,0.302 -0.11,0.072 -0.245,0.108 -0.412,0.105 -0.165,-0.007 -0.312,-0.062 -0.437,-0.172 -0.122,-0.11 -0.185,-0.24 -0.182,-0.395 0.004,-0.255 0.161,-0.402 0.465,-0.444 -0.071,0.077 -0.107,0.162 -0.107,0.244 -0.002,0.103 0.034,0.188 0.109,0.25 0.076,0.068 0.167,0.1 0.279,0.1 0.128,0.005 0.235,-0.05 0.318,-0.16 0.083,-0.113 0.122,-0.232 0.126,-0.36 0,-0.112 -0.058,-0.205 -0.184,-0.279 -0.104,-0.065 -0.218,-0.098 -0.341,-0.1 -0.302,-0.005 -0.539,0.072 -0.718,0.234 -0.177,0.163 -0.27,0.382 -0.275,0.657 -0.003,0.228 0.061,0.425 0.19,0.597 0.142,0.193 0.334,0.293 0.567,0.295 0.277,0.005 0.526,-0.122 0.746,-0.384 0,0.069 0.045,0.149 0.141,0.246 0.095,0.093 0.18,0.143 0.251,0.143 0.29,0.005 0.505,-0.179 0.644,-0.552 l -0.015,0.882 -2.676,-0.04 -0.365,0.319 3.887,0.061 z" /></g><g
         transform="translate(127.3115,88.9272)"
         id="g376"><path
           id="path378"
           style="fill:#ffffff;fill-opacity:1;fill-rule:nonzero;stroke:none"
           d="m 0,0 -0.813,0.015 -0.059,-3.393 -0.304,0.342 0.042,2.428 c 0.003,0.19 -0.064,0.35 -0.197,0.484 -0.133,0.132 -0.296,0.187 -0.488,0.165 l -0.326,0.326 c 0.103,0.013 0.192,0.018 0.275,0.018 0.28,-0.005 0.482,-0.088 0.606,-0.253 0.072,-0.086 0.158,-0.292 0.261,-0.618 -0.078,0.438 -0.113,0.909 -0.105,1.421 l 0.123,-0.106 c 0.022,-0.208 0.081,-0.37 0.179,-0.482 l 0.486,-0.01 z" /></g><g
         transform="translate(127.3115,88.9272)"
         id="g380"><path
           id="path382"
           style="fill:none;stroke:#ffffff;stroke-width:1.478;stroke-linecap:butt;stroke-linejoin:round;stroke-miterlimit:10;stroke-dasharray:none;stroke-opacity:1"
           d="m 0,0 -0.813,0.015 -0.059,-3.393 -0.304,0.342 0.042,2.428 c 0.003,0.19 -0.064,0.35 -0.197,0.484 -0.133,0.132 -0.296,0.187 -0.488,0.165 l -0.326,0.326 c 0.103,0.013 0.192,0.018 0.275,0.018 0.28,-0.005 0.482,-0.088 0.606,-0.253 0.072,-0.086 0.158,-0.292 0.261,-0.618 -0.078,0.438 -0.113,0.909 -0.105,1.421 l 0.123,-0.106 c 0.022,-0.208 0.081,-0.37 0.179,-0.482 l 0.486,-0.01 z" /></g><g
         transform="translate(129.744,88.8102)"
         id="g384"><path
           id="path386"
           style="fill:#ffffff;fill-opacity:1;fill-rule:nonzero;stroke:none"
           d="m 0,0 c -0.162,0.003 -0.342,-0.032 -0.547,-0.099 -0.76,-0.25 -1.159,-0.838 -1.199,-1.762 -0.019,-0.446 0.148,-0.773 0.5,-0.985 0.03,-0.017 0.077,-0.025 0.138,-0.03 0.065,-0.002 0.092,0.005 0.083,0.023 -0.039,0.005 -0.081,0.05 -0.124,0.142 -0.041,0.089 -0.062,0.157 -0.059,0.204 0.003,0.092 0.051,0.172 0.139,0.242 0.092,0.067 0.184,0.102 0.282,0.094 0.079,-0.002 0.138,-0.027 0.182,-0.074 0.139,-0.075 0.204,-0.194 0.196,-0.359 -0.004,-0.149 -0.068,-0.272 -0.192,-0.366 -0.121,-0.095 -0.262,-0.137 -0.42,-0.133 -0.355,0.013 -0.632,0.203 -0.829,0.569 -0.164,0.306 -0.238,0.645 -0.221,1.012 0.024,0.555 0.271,1.077 0.739,1.564 L -2.336,0.08 -2.652,0.419 -0.313,0.325 Z" /></g><g
         transform="translate(129.744,88.8102)"
         id="g388"><path
           id="path390"
           style="fill:none;stroke:#ffffff;stroke-width:1.478;stroke-linecap:butt;stroke-linejoin:round;stroke-miterlimit:10;stroke-dasharray:none;stroke-opacity:1"
           d="m 0,0 c -0.162,0.003 -0.342,-0.032 -0.547,-0.099 -0.76,-0.25 -1.159,-0.838 -1.199,-1.762 -0.019,-0.446 0.148,-0.773 0.5,-0.985 0.03,-0.017 0.077,-0.025 0.138,-0.03 0.065,-0.002 0.092,0.005 0.083,0.023 -0.039,0.005 -0.081,0.05 -0.124,0.142 -0.041,0.089 -0.062,0.157 -0.059,0.204 0.003,0.092 0.051,0.172 0.139,0.242 0.092,0.067 0.184,0.102 0.282,0.094 0.079,-0.002 0.138,-0.027 0.182,-0.074 0.139,-0.075 0.204,-0.194 0.196,-0.359 -0.004,-0.149 -0.068,-0.272 -0.192,-0.366 -0.121,-0.095 -0.262,-0.137 -0.42,-0.133 -0.355,0.013 -0.632,0.203 -0.829,0.569 -0.164,0.306 -0.238,0.645 -0.221,1.012 0.024,0.555 0.271,1.077 0.739,1.564 L -2.336,0.08 -2.652,0.419 -0.313,0.325 Z" /></g><g
         transform="translate(133.4117,88.5421)"
         id="g392"><path
           id="path394"
           style="fill:#ffffff;fill-opacity:1;fill-rule:nonzero;stroke:none"
           d="m 0,0 -2.777,0.201 -0.111,-1.343 c 0.069,0.03 0.176,0.098 0.32,0.203 0.189,0.141 0.295,0.219 0.321,0.236 0.258,0.164 0.58,0.302 0.97,0.41 l 0.563,-0.457 c -0.356,-0.535 -0.547,-1.027 -0.585,-1.478 -0.003,-0.036 -0.003,-0.083 -0.003,-0.151 0.003,-0.068 0,-0.118 -0.004,-0.151 -0.002,-0.065 0.013,-0.291 0.049,-0.68 l -0.219,0.123 c -0.085,0.578 -0.113,1.022 -0.089,1.328 0.027,0.291 0.082,0.567 0.167,0.833 -0.314,-0.08 -0.603,-0.223 -0.868,-0.429 -0.266,-0.201 -0.47,-0.442 -0.61,-0.715 l -0.422,0.476 0.15,1.825 -0.348,0.022 -0.321,0.354 3.497,-0.255 z" /></g><g
         transform="translate(133.4117,88.5421)"
         id="g396"><path
           id="path398"
           style="fill:none;stroke:#ffffff;stroke-width:1.478;stroke-linecap:butt;stroke-linejoin:round;stroke-miterlimit:10;stroke-dasharray:none;stroke-opacity:1"
           d="m 0,0 -2.777,0.201 -0.111,-1.343 c 0.069,0.03 0.176,0.098 0.32,0.203 0.189,0.141 0.295,0.219 0.321,0.236 0.258,0.164 0.58,0.302 0.97,0.41 l 0.563,-0.457 c -0.356,-0.535 -0.547,-1.027 -0.585,-1.478 -0.003,-0.036 -0.003,-0.083 -0.003,-0.151 0.003,-0.068 0,-0.118 -0.004,-0.151 -0.002,-0.065 0.013,-0.291 0.049,-0.68 l -0.219,0.123 c -0.085,0.578 -0.113,1.022 -0.089,1.328 0.027,0.291 0.082,0.567 0.167,0.833 -0.314,-0.08 -0.603,-0.223 -0.868,-0.429 -0.266,-0.201 -0.47,-0.442 -0.61,-0.715 l -0.422,0.476 0.15,1.825 -0.348,0.022 -0.321,0.354 3.497,-0.255 z" /></g><g
         transform="translate(137.4568,88.0769)"
         id="g400"><path
           id="path402"
           style="fill:#ffffff;fill-opacity:1;fill-rule:nonzero;stroke:none"
           d="m 0,0 -0.782,0.093 -0.439,-3.271 -0.305,0.364 0.287,1.994 c 0.018,0.119 -0.038,0.281 -0.17,0.494 -0.129,0.209 -0.255,0.32 -0.378,0.336 -0.073,0.007 -0.151,-0.006 -0.235,-0.043 -0.099,-0.046 -0.154,-0.099 -0.162,-0.165 0.153,-0.133 0.254,-0.235 0.301,-0.303 0.103,-0.129 0.147,-0.255 0.129,-0.377 -0.038,-0.286 -0.204,-0.407 -0.495,-0.374 -0.202,0.022 -0.356,0.159 -0.468,0.407 -0.058,-0.094 -0.144,-0.173 -0.26,-0.238 -0.117,-0.063 -0.228,-0.088 -0.339,-0.076 -0.123,0.015 -0.216,0.073 -0.282,0.177 -0.063,0.104 -0.089,0.215 -0.072,0.339 0.017,0.121 0.107,0.255 0.265,0.4 0.162,0.147 0.302,0.22 0.417,0.217 -0.056,0.208 -0.16,0.345 -0.314,0.405 -0.067,0.023 -0.252,0.051 -0.552,0.083 l -0.3,0.365 0.704,-0.086 c 0.179,-0.02 0.337,-0.099 0.47,-0.236 0.135,-0.136 0.21,-0.285 0.223,-0.452 0.18,0.271 0.43,0.435 0.761,0.483 0.076,0.013 0.131,0.018 0.157,0.015 0.108,-0.015 0.263,-0.187 0.458,-0.524 0.181,-0.303 0.284,-0.523 0.303,-0.65 0.02,0.704 0.049,1.255 0.09,1.657 0.087,-0.088 0.147,-0.159 0.185,-0.217 0.012,-0.076 0.019,-0.149 0.027,-0.22 0.018,-0.114 0.08,-0.178 0.184,-0.195 l 0.293,-0.033 z" /></g><g
         transform="translate(137.4568,88.0769)"
         id="g404"><path
           id="path406"
           style="fill:none;stroke:#ffffff;stroke-width:1.478;stroke-linecap:butt;stroke-linejoin:round;stroke-miterlimit:10;stroke-dasharray:none;stroke-opacity:1"
           d="m 0,0 -0.782,0.093 -0.439,-3.271 -0.305,0.364 0.287,1.994 c 0.018,0.119 -0.038,0.281 -0.17,0.494 -0.129,0.209 -0.255,0.32 -0.378,0.336 -0.073,0.007 -0.151,-0.006 -0.235,-0.043 -0.099,-0.046 -0.154,-0.099 -0.162,-0.165 0.153,-0.133 0.254,-0.235 0.301,-0.303 0.103,-0.129 0.147,-0.255 0.129,-0.377 -0.038,-0.286 -0.204,-0.407 -0.495,-0.374 -0.202,0.022 -0.356,0.159 -0.468,0.407 -0.058,-0.094 -0.144,-0.173 -0.26,-0.238 -0.117,-0.063 -0.228,-0.088 -0.339,-0.076 -0.123,0.015 -0.216,0.073 -0.282,0.177 -0.063,0.104 -0.089,0.215 -0.072,0.339 0.017,0.121 0.107,0.255 0.265,0.4 0.162,0.147 0.302,0.22 0.417,0.217 -0.056,0.208 -0.16,0.345 -0.314,0.405 -0.067,0.023 -0.252,0.051 -0.552,0.083 l -0.3,0.365 0.704,-0.086 c 0.179,-0.02 0.337,-0.099 0.47,-0.236 0.135,-0.136 0.21,-0.285 0.223,-0.452 0.18,0.271 0.43,0.435 0.761,0.483 0.076,0.013 0.131,0.018 0.157,0.015 0.108,-0.015 0.263,-0.187 0.458,-0.524 0.181,-0.303 0.284,-0.523 0.303,-0.65 0.02,0.704 0.049,1.255 0.09,1.657 0.087,-0.088 0.147,-0.159 0.185,-0.217 0.012,-0.076 0.019,-0.149 0.027,-0.22 0.018,-0.114 0.08,-0.178 0.184,-0.195 l 0.293,-0.033 z" /></g></g></g><g
     transform="matrix(1.3333333,0,0,-1.3333333,24.396365,6.6272453)"
     id="g408"><path
       id="path410"
       style="fill:#ffffff;fill-opacity:1;fill-rule:nonzero;stroke:#ffffff;stroke-width:1.478;stroke-linecap:butt;stroke-linejoin:round;stroke-miterlimit:10;stroke-dasharray:none;stroke-opacity:1"
       d="M 0,0 H 1.804 L 5.261,3.6 1.804,3.929 0.086,2.198" /></g><g
     transform="matrix(1.3333333,0,0,-1.3333333,27.035165,7.0120453)"
     id="g412"><path
       id="path414"
       style="fill:#ffffff;fill-opacity:1;fill-rule:nonzero;stroke:none"
       d="m 0,0 h -1.929 v 0.535 h 1.667 L 2.729,3.696 -0.016,3.958 -1.626,2.31 -2.057,2.668 -0.249,4.52 3.892,4.118 Z" /></g><g
     transform="matrix(1.3333333,0,0,-1.3333333,27.035165,7.0120453)"
     id="g416"><path
       id="path418"
       style="fill:none;stroke:#ffffff;stroke-width:1.478;stroke-linecap:butt;stroke-linejoin:round;stroke-miterlimit:10;stroke-dasharray:none;stroke-opacity:1"
       d="m 0,0 h -1.929 v 0.535 h 1.667 L 2.729,3.696 -0.016,3.958 -1.626,2.31 -2.057,2.668 -0.249,4.52 3.892,4.118 Z" /></g><g
     transform="matrix(1.3333333,0,0,-1.3333333,19.923565,9.9468453)"
     id="g420"><path
       id="path422"
       style="fill:#ffffff;fill-opacity:1;fill-rule:nonzero;stroke:#ffffff;stroke-width:1.478;stroke-linecap:butt;stroke-linejoin:round;stroke-miterlimit:10;stroke-dasharray:none;stroke-opacity:1"
       d="M 0,0 H 2.043 L 4.2,4.441 0.49,4.626 -0.924,1.761" /></g><g
     transform="matrix(1.3333333,0,0,-1.3333333,22.917825,10.327345)"
     id="g424"><path
       id="path426"
       style="fill:#ffffff;fill-opacity:1;fill-rule:nonzero;stroke:none"
       d="m 0,0 h -2.236 v 0.54 h 1.863 L 1.538,4.499 -1.565,4.651 -2.897,1.931 -3.423,2.155 -1.927,5.21 2.409,4.992 Z" /></g><g
     transform="matrix(1.3333333,0,0,-1.3333333,22.917825,10.327345)"
     id="g428"><path
       id="path430"
       style="fill:none;stroke:#ffffff;stroke-width:1.478;stroke-linecap:butt;stroke-linejoin:round;stroke-miterlimit:10;stroke-dasharray:none;stroke-opacity:1"
       d="m 0,0 h -2.236 v 0.54 h 1.863 L 1.538,4.499 -1.565,4.651 -2.897,1.931 -3.423,2.155 -1.927,5.21 2.409,4.992 Z" /></g><g
     transform="matrix(1.3333333,0,0,-1.3333333,15.580095,15.130345)"
     id="g432"><path
       id="path434"
       style="fill:#ffffff;fill-opacity:1;fill-rule:nonzero;stroke:#ffffff;stroke-width:1.478;stroke-linecap:butt;stroke-linejoin:round;stroke-miterlimit:10;stroke-dasharray:none;stroke-opacity:1"
       d="M 0,0 H 1.904 L 3.546,5.265 -0.173,5.529 -1.042,2.766" /></g><g
     transform="matrix(1.3333333,0,0,-1.3333333,18.419295,15.513945)"
     id="g436"><path
       id="path438"
       style="fill:#ffffff;fill-opacity:1;fill-rule:nonzero;stroke:none"
       d="m 0,0 h -2.13 v 0.542 h 1.701 l 1.488,4.78 -3.155,0.223 -0.809,-2.572 -0.551,0.156 0.943,2.988 4.326,-0.303 z" /></g><g
     transform="matrix(1.3333333,0,0,-1.3333333,18.419295,15.513945)"
     id="g440"><path
       id="path442"
       style="fill:none;stroke:#ffffff;stroke-width:1.478;stroke-linecap:butt;stroke-linejoin:round;stroke-miterlimit:10;stroke-dasharray:none;stroke-opacity:1"
       d="m 0,0 h -2.13 v 0.542 h 1.701 l 1.488,4.78 -3.155,0.223 -0.809,-2.572 -0.551,0.156 0.943,2.988 4.326,-0.303 z" /></g><g
     transform="matrix(1.3333333,0,0,-1.3333333,11.706625,18.990345)"
     id="g444"><path
       id="path446"
       style="fill:#ffffff;fill-opacity:1;fill-rule:nonzero;stroke:#ffffff;stroke-width:1.478;stroke-linecap:butt;stroke-linejoin:round;stroke-miterlimit:10;stroke-dasharray:none;stroke-opacity:1"
       d="M 0,0 H 2.26 L 3.124,5.438 H -0.732 L -1.244,1.807" /></g><g
     transform="matrix(1.3333333,0,0,-1.3333333,15.063825,19.370845)"
     id="g448"><path
       id="path450"
       style="fill:#ffffff;fill-opacity:1;fill-rule:nonzero;stroke:none"
       d="M 0,0 H -2.523 V 0.542 H -0.49 L 0.293,5.465 H -3.009 L -3.494,2.051 -4.06,2.124 -3.512,6.005 h 4.473 z" /></g><g
     transform="matrix(1.3333333,0,0,-1.3333333,15.063825,19.370845)"
     id="g452"><path
       id="path454"
       style="fill:none;stroke:#ffffff;stroke-width:1.478;stroke-linecap:butt;stroke-linejoin:round;stroke-miterlimit:10;stroke-dasharray:none;stroke-opacity:1"
       d="M 0,0 H -2.523 V 0.542 H -0.49 L 0.293,5.465 H -3.009 L -3.494,2.051 -4.06,2.124 -3.512,6.005 h 4.473 z" /></g><g
     transform="matrix(1.3333333,0,0,-1.3333333,8.2260947,24.363245)"
     id="g456"><path
       id="path458"
       style="fill:#ffffff;fill-opacity:1;fill-rule:nonzero;stroke:#ffffff;stroke-width:1.478;stroke-linecap:butt;stroke-linejoin:round;stroke-miterlimit:10;stroke-dasharray:none;stroke-opacity:1"
       d="M 0,0 H 2.373 V 5.602 L -1.62,5.473 V 0.962" /></g><g
     transform="matrix(1.3333333,0,0,-1.3333333,11.793825,24.743745)"
     id="g460"><path
       id="path462"
       style="fill:#ffffff;fill-opacity:1;fill-rule:nonzero;stroke:none"
       d="M 0,0 H -2.679 V 0.544 H -0.57 V 5.621 L -4.027,5.51 V 1.237 H -4.599 V 6.036 L 0,6.187 Z" /></g><g
     transform="matrix(1.3333333,0,0,-1.3333333,11.793825,24.743745)"
     id="g464"><path
       id="path466"
       style="fill:none;stroke:#ffffff;stroke-width:1.478;stroke-linecap:butt;stroke-linejoin:round;stroke-miterlimit:10;stroke-dasharray:none;stroke-opacity:1"
       d="M 0,0 H -2.679 V 0.544 H -0.57 V 5.621 L -4.027,5.51 V 1.237 H -4.599 V 6.036 L 0,6.187 Z" /></g><g
     transform="matrix(1.3333333,0,0,-1.3333333,8.0991647,31.255745)"
     id="g468"><path
       id="path470"
       style="fill:#ffffff;fill-opacity:1;fill-rule:nonzero;stroke:#ffffff;stroke-width:1.478;stroke-linecap:butt;stroke-linejoin:round;stroke-miterlimit:10;stroke-dasharray:none;stroke-opacity:1"
       d="M 0,0 1.71,0.699 -0.648,6.272 -4.005,4.741 -2.85,1.326" /></g><g
     transform="matrix(1.3333333,0,0,-1.3333333,8.2623647,31.593745)"
     id="g472"><path
       id="path474"
       style="fill:#ffffff;fill-opacity:1;fill-rule:nonzero;stroke:none"
       d="M 0,0 -0.231,0.501 1.23,1.098 -0.921,6.172 -3.79,4.868 -2.705,1.665 -3.257,1.497 -4.495,5.155 -0.612,6.918 1.976,0.811 Z" /></g><g
     transform="matrix(1.3333333,0,0,-1.3333333,8.2623647,31.593745)"
     id="g476"><path
       id="path478"
       style="fill:none;stroke:#ffffff;stroke-width:1.478;stroke-linecap:butt;stroke-linejoin:round;stroke-miterlimit:10;stroke-dasharray:none;stroke-opacity:1"
       d="M 0,0 -0.231,0.501 1.23,1.098 -0.921,6.172 -3.79,4.868 -2.705,1.665 -3.257,1.497 -4.495,5.155 -0.612,6.918 1.976,0.811 Z" /></g><g
     transform="matrix(1.3333333,0,0,-1.3333333,9.6079647,37.700045)"
     id="g480"><path
       id="path482"
       style="fill:#ffffff;fill-opacity:1;fill-rule:nonzero;stroke:#ffffff;stroke-width:1.478;stroke-linecap:butt;stroke-linejoin:round;stroke-miterlimit:10;stroke-dasharray:none;stroke-opacity:1"
       d="M 0,0 1.461,1.232 -2.827,6.703 -6.062,4.327 -3.425,0.439" /></g><g
     transform="matrix(1.3333333,0,0,-1.3333333,9.8786247,37.942445)"
     id="g484"><path
       id="path486"
       style="fill:#ffffff;fill-opacity:1;fill-rule:nonzero;stroke:none"
       d="M 0,0 -0.389,0.408 0.877,1.475 -3.088,6.517 -5.889,4.469 -3.385,0.792 -3.879,0.496 -6.67,4.594 -2.975,7.293 1.665,1.396 Z" /></g><g
     transform="matrix(1.3333333,0,0,-1.3333333,9.8786247,37.942445)"
     id="g488"><path
       id="path490"
       style="fill:none;stroke:#ffffff;stroke-width:1.478;stroke-linecap:butt;stroke-linejoin:round;stroke-miterlimit:10;stroke-dasharray:none;stroke-opacity:1"
       d="M 0,0 -0.389,0.408 0.877,1.475 -3.088,6.517 -5.889,4.469 -3.385,0.792 -3.879,0.496 -6.67,4.594 -2.975,7.293 1.665,1.396 Z" /></g><g
     transform="matrix(1.3333333,0,0,-1.3333333,13.023025,44.062445)"
     id="g492"><path
       id="path494"
       style="fill:#ffffff;fill-opacity:1;fill-rule:nonzero;stroke:#ffffff;stroke-width:1.478;stroke-linecap:butt;stroke-linejoin:round;stroke-miterlimit:10;stroke-dasharray:none;stroke-opacity:1"
       d="M 0,0 1.088,1.007 -4.51,6.261 -7.889,2.918 -4.119,-1" /></g><g
     transform="matrix(1.3333333,0,0,-1.3333333,7.2370247,45.597245)"
     id="g496"><path
       id="path498"
       style="fill:#ffffff;fill-opacity:1;fill-rule:nonzero;stroke:none"
       d="M 0,0 -3.961,4.097 -0.178,7.823 5.856,2.188 4.556,0.989 4.143,1.378 5.021,2.188 -0.167,7.036 -3.159,4.09 0.438,0.37 Z" /></g><g
     transform="matrix(1.3333333,0,0,-1.3333333,7.2370247,45.597245)"
     id="g500"><path
       id="path502"
       style="fill:none;stroke:#ffffff;stroke-width:1.478;stroke-linecap:butt;stroke-linejoin:round;stroke-miterlimit:10;stroke-dasharray:none;stroke-opacity:1"
       d="M 0,0 -3.961,4.097 -0.178,7.823 5.856,2.188 4.556,0.989 4.143,1.378 5.021,2.188 -0.167,7.036 -3.159,4.09 0.438,0.37 Z" /></g><g
     transform="matrix(1.3333333,0,0,-1.3333333,18.009425,50.261345)"
     id="g504"><path
       id="path506"
       style="fill:#ffffff;fill-opacity:1;fill-rule:nonzero;stroke:#ffffff;stroke-width:1.478;stroke-linecap:butt;stroke-linejoin:round;stroke-miterlimit:10;stroke-dasharray:none;stroke-opacity:1"
       d="M 0,0 1.597,2.059 -6.256,5.555 -8.871,1.607 -4.033,-1.289" /></g><g
     transform="matrix(1.3333333,0,0,-1.3333333,12.417025,52.279145)"
     id="g508"><path
       id="path510"
       style="fill:#ffffff;fill-opacity:1;fill-rule:nonzero;stroke:none"
       d="M 0,0 -5.091,3.044 -2.178,7.439 6.245,3.691 4.443,1.361 3.964,1.681 5.355,3.479 -1.953,6.727 -4.284,3.214 0.32,0.463 Z" /></g><g
     transform="matrix(1.3333333,0,0,-1.3333333,12.417025,52.279145)"
     id="g512"><path
       id="path514"
       style="fill:none;stroke:#ffffff;stroke-width:1.478;stroke-linecap:butt;stroke-linejoin:round;stroke-miterlimit:10;stroke-dasharray:none;stroke-opacity:1"
       d="M 0,0 -5.091,3.044 -2.178,7.439 6.245,3.691 4.443,1.361 3.964,1.681 5.355,3.479 -1.953,6.727 -4.284,3.214 0.32,0.463 Z" /></g><g
     transform="matrix(1.3333333,0,0,-1.3333333,25.745165,53.297145)"
     id="g516"><path
       id="path518"
       style="fill:#ffffff;fill-opacity:1;fill-rule:nonzero;stroke:none"
       d="m 0,0 -2.95,-4.799 -8.444,3.044 3.117,4.727 z" /></g><g
     transform="matrix(1.3333333,0,0,-1.3333333,25.745165,53.297145)"
     id="g520"><path
       id="path522"
       style="fill:none;stroke:#ffffff;stroke-width:1.478;stroke-linecap:butt;stroke-linejoin:round;stroke-miterlimit:10;stroke-dasharray:none;stroke-opacity:1"
       d="m 0,0 -2.95,-4.799 -8.444,3.044 3.117,4.727 z" /></g><g
     transform="matrix(1.3333333,0,0,-1.3333333,21.992365,60.171145)"
     id="g524"><path
       id="path526"
       style="fill:#ffffff;fill-opacity:1;fill-rule:nonzero;stroke:none"
       d="m 0,0 -9.026,3.261 3.435,5.22 8.844,-3.183 z m -8.152,3.537 7.891,-2.853 2.659,4.333 -7.742,2.782 z" /></g><g
     transform="matrix(1.3333333,0,0,-1.3333333,21.992365,60.171145)"
     id="g528"><path
       id="path530"
       style="fill:none;stroke:#ffffff;stroke-width:1.478;stroke-linecap:butt;stroke-linejoin:round;stroke-miterlimit:10;stroke-dasharray:none;stroke-opacity:1"
       d="m 0,0 -9.026,3.261 3.435,5.22 8.844,-3.183 z m -8.152,3.537 7.891,-2.853 2.659,4.333 -7.742,2.782 z" /></g><g
     id="g532"
     transform="matrix(1.3333333,0,0,-1.3333333,-129.81524,183.32325)"><g
       clip-path="url(#clipPath538)"
       id="g534"><g
         transform="translate(121.6805,114.1101)"
         id="g540"><path
           id="path542"
           style="fill:#ffffff;fill-opacity:1;fill-rule:nonzero;stroke:#ffffff;stroke-width:1.478;stroke-linecap:butt;stroke-linejoin:round;stroke-miterlimit:10;stroke-dasharray:none;stroke-opacity:1"
           d="m 0,0 c -0.013,-1.95 -0.024,-3.906 -0.039,-5.856 v 0.034 c -0.219,0.309 -0.103,0.914 -0.196,1.327 -0.175,0.774 -0.361,1.514 -0.727,2.122 -0.156,0.253 -0.431,0.763 -0.885,0.679 V -1.71 c 0.112,-0.293 0.622,-1.644 -0.294,-1.512 -0.966,0.146 -1.049,1.546 -0.494,2.128 0.268,0.278 0.826,0.235 1.141,0.032 0.421,-0.272 0.978,-1.261 1.043,-1.827 0.012,0.005 0.024,0.014 0.038,0.019 v 2.936 c -1.12,0.163 -2.242,0.319 -3.363,0.481 -0.017,-1.908 -0.037,-3.816 -0.059,-5.724 -0.037,0.024 -0.01,0.002 -0.037,0.034 -0.366,0.309 -0.518,1.007 -0.396,1.708 0.028,1.35 0.055,2.7 0.079,4.048 C -4.405,0.645 -4.62,0.679 -4.836,0.711 -4.965,0.917 -5.096,1.12 -5.231,1.326 -4.87,1.279 -4.507,1.229 -4.147,1.179 -4.295,1.422 -4.528,1.641 -4.561,1.971 -4.63,2.682 -3.736,3.692 -2.91,3.549 -1.882,3.372 -0.561,2.153 -0.413,1.245 -1.073,1.728 -1.293,2.492 -2.181,2.801 -3.076,3.113 -3.554,2.603 -3.855,2.106 -3.929,1.976 -4.101,1.81 -4.05,1.591 -3.88,0.888 -3.436,1.096 -2.655,0.962 -1.83,0.835 -1.002,0.708 -0.177,0.581 0.112,0.526 0.45,0.541 0.669,0.43 0.794,0.238 0.918,0.045 1.042,-0.148 0.695,-0.1 0.347,-0.05 0,0" /></g><g
         transform="translate(135.2018,114.9727)"
         id="g544"><path
           id="path546"
           style="fill:#ffffff;fill-opacity:1;fill-rule:nonzero;stroke:none"
           d="M 0,0 C -0.007,0.143 -0.012,0.292 -0.019,0.439 0.636,0.7 1.294,0.962 1.948,1.229 1.821,1.386 1.692,1.547 1.567,1.707 0.019,1.079 -1.525,0.455 -3.07,-0.176 c 0.126,-0.151 0.253,-0.305 0.38,-0.46 0.77,0.309 1.539,0.618 2.309,0.921 0.006,-0.152 0.014,-0.303 0.022,-0.461 -0.685,-0.857 -1.414,-1.621 -1.928,-2.669 0.183,-0.248 0.362,-0.499 0.543,-0.747 0.088,-0.071 0.596,-0.043 0.762,-0.137 0.562,-0.314 0.936,-0.983 1.064,-1.707 0.045,-0.042 0.092,-0.076 0.141,-0.118 -0.06,1.564 -0.125,3.128 -0.182,4.688 0.007,0.013 0.016,0.026 0.02,0.04 0.762,0.237 1.15,-0.432 1.124,-1.193 C 1.093,-1.948 0.982,-1.812 0.804,-1.883 0.351,-2.032 0.27,-3.041 0.722,-3.251 2.002,-3.232 1.498,0.664 0,0 m -0.22,-4.113 c -0.167,0.598 -0.666,1.229 -1.305,1.383 0.351,0.62 0.784,1.166 1.185,1.729 0.045,-1.036 0.093,-2.074 0.141,-3.112 z" /></g><g
         transform="translate(135.2018,114.9727)"
         id="g548"><path
           id="path550"
           style="fill:none;stroke:#ffffff;stroke-width:1.478;stroke-linecap:butt;stroke-linejoin:round;stroke-miterlimit:10;stroke-dasharray:none;stroke-opacity:1"
           d="M 0,0 C -0.007,0.143 -0.012,0.292 -0.019,0.439 0.636,0.7 1.294,0.962 1.948,1.229 1.821,1.386 1.692,1.547 1.567,1.707 0.019,1.079 -1.525,0.455 -3.07,-0.176 c 0.126,-0.151 0.253,-0.305 0.38,-0.46 0.77,0.309 1.539,0.618 2.309,0.921 0.006,-0.152 0.014,-0.303 0.022,-0.461 -0.685,-0.857 -1.414,-1.621 -1.928,-2.669 0.183,-0.248 0.362,-0.499 0.543,-0.747 0.088,-0.071 0.596,-0.043 0.762,-0.137 0.562,-0.314 0.936,-0.983 1.064,-1.707 0.045,-0.042 0.092,-0.076 0.141,-0.118 -0.06,1.564 -0.125,3.128 -0.182,4.688 0.007,0.013 0.016,0.026 0.02,0.04 0.762,0.237 1.15,-0.432 1.124,-1.193 C 1.093,-1.948 0.982,-1.812 0.804,-1.883 0.351,-2.032 0.27,-3.041 0.722,-3.251 2.002,-3.232 1.498,0.664 0,0 m -0.22,-4.113 c -0.167,0.598 -0.666,1.229 -1.305,1.383 0.351,0.62 0.784,1.166 1.185,1.729 0.045,-1.036 0.093,-2.074 0.141,-3.112 z" /></g></g></g><g
     transform="matrix(1.3333333,0,0,-1.3333333,42.407425,48.121945)"
     id="g552"><path
       id="path554"
       style="fill:#ed1c24;fill-opacity:1;fill-rule:nonzero;stroke:none"
       d="m 0,0 10.346,4.265 0.003,17.697 -18.443,3.169 -10.319,-4.477 V 20.205 2.755 L 0,0 -0.02,17.381" /></g><g
     transform="matrix(1.3333333,0,0,-1.3333333,33.777165,18.034445)"
     id="g556"><path
       id="path558"
       style="fill:#ffffff;fill-opacity:1;fill-rule:nonzero;stroke:none"
       d="M 0,0 3.215,4.12 7.397,3.264 6.473,2.061 7.336,2.05 5.253,-1.174 Z" /></g><g
     transform="matrix(1.3333333,0,0,-1.3333333,15.003965,69.988445)"
     id="g560"><path
       id="path562"
       style="fill:#008940;fill-opacity:1;fill-rule:nonzero;stroke:none"
       d="M 0,0 -7.47,-2.27 -5.712,2.904 -9.228,5.138 0.046,7.446 1.033,5.335 Z" /></g><g
     transform="matrix(1.3333333,0,0,-1.3333333,57.872225,70.043645)"
     id="g564"><path
       id="path566"
       style="fill:#008940;fill-opacity:1;fill-rule:nonzero;stroke:none"
       d="M 0,0 8.63,-2.176 6.499,2.813 10.654,5.149 1.001,7.487 0,4.982 Z" /></g><g
     transform="matrix(1.3333333,0,0,-1.3333333,42.437965,25.345745)"
     id="g568"><path
       id="path570"
       style="fill:#231f20;fill-opacity:1;fill-rule:nonzero;stroke:none"
       d="M 0,0 -19.098,3.454 -8.162,8.348 -4.941,7.816 -5.046,7.251 -8.077,7.753 -17.155,3.688 -0.082,0.597 9.044,4.713 0.204,6.352 0.317,6.917 10.964,4.943 Z" /></g><g
     transform="matrix(1.3333333,0,0,-1.3333333,41.915825,23.360845)"
     id="g572"><path
       id="path574"
       style="fill:#231f20;fill-opacity:1;fill-rule:nonzero;stroke:none"
       d="M 0,0 -14.975,2.561 -7.822,5.856 -5.253,5.357 -5.374,4.792 -7.74,5.253 -13.038,2.81 -0.084,0.595 5.501,3.057 0.01,4.104 0.13,4.668 7.43,3.273 Z" /></g><g
     id="g576"
     transform="matrix(1.3333333,0,0,-1.3333333,-129.81524,183.32325)"><g
       clip-path="url(#clipPath582)"
       id="g578"><g
         transform="translate(129.2291,121.3944)"
         id="g584"><path
           id="path586"
           style="fill:#231f20;fill-opacity:1;fill-rule:nonzero;stroke:none"
           d="m 0,0 c -0.309,0 -0.536,0.016 -0.609,0.019 l -0.02,0.006 -9.929,1.433 0.092,0.568 9.915,-1.433 c 0.86,-0.061 2.335,0.016 2.666,0.487 0.036,0.05 0.128,0.182 0,0.477 L -0.671,2.169 -0.535,2.725 2.535,2.057 2.6,1.938 C 2.904,1.374 2.778,0.987 2.621,0.762 2.16,0.104 0.808,0 0,0" /></g></g></g><g
     transform="matrix(1.3333333,0,0,-1.3333333,42.305425,20.155245)"
     id="g588"><path
       id="path590"
       style="fill:#231f20;fill-opacity:1;fill-rule:nonzero;stroke:none"
       d="M 0,0 -7.739,1.447 -7.622,2.01 0.118,0.565 Z" /></g><g
     transform="matrix(1.3333333,0,0,-1.3333333,41.125825,19.800745)"
     id="g592"><path
       id="path594"
       style="fill:#231f20;fill-opacity:1;fill-rule:nonzero;stroke:none"
       d="M 0,0 -0.517,0.302 1.358,3.199 -1.801,4.033 -4.07,0.877 -4.57,1.198 -2.058,4.699 2.294,3.547 Z" /></g><g
     transform="matrix(1.3333333,0,0,-1.3333333,34.099425,18.261645)"
     id="g596"><path
       id="path598"
       style="fill:#231f20;fill-opacity:1;fill-rule:nonzero;stroke:none"
       d="M 0,0 -0.487,0.34 2.847,4.611 7.654,3.627 6.684,2.248 6.182,2.566 6.658,3.243 3.103,3.972 Z" /></g><g
     transform="matrix(1.3333333,0,0,-1.3333333,42.889565,48.618745)"
     id="g600"><path
       id="path602"
       style="fill:#231f20;fill-opacity:1;fill-rule:nonzero;stroke:none"
       d="m 0,0 -19.154,2.818 v 18.209 h 0.758 V 3.432 L -0.758,0.839 V 17.753 H 0 Z" /></g><g
     transform="matrix(1.3333333,0,0,-1.3333333,42.565165,48.472545)"
     id="g604"><path
       id="path606"
       style="fill:#231f20;fill-opacity:1;fill-rule:nonzero;stroke:none"
       d="M 0,0 -0.24,0.526 9.925,4.718 9.928,22.225 h 0.608 L 10.531,4.343 Z" /></g><g
     transform="matrix(1.3333333,0,0,-1.3333333,50.115695,7.4159453)"
     id="g608"><path
       id="path610"
       style="fill:#008940;fill-opacity:1;fill-rule:nonzero;stroke:none"
       d="M 0,0 H -1.888 L -5.504,3.92 -1.888,4.282 -0.09,2.39" /></g><g
     transform="matrix(1.3333333,0,0,-1.3333333,50.115695,7.8007453)"
     id="g612"><path
       id="path614"
       style="fill:#231f20;fill-opacity:1;fill-rule:nonzero;stroke:none"
       d="M 0,0 H -2.025 L -6.117,4.439 -1.765,4.872 0.131,2.873 -0.317,2.487 -2.01,4.269 -4.892,3.981 -1.75,0.573 H 0 Z" /></g><g
     transform="matrix(1.3333333,0,0,-1.3333333,54.566625,10.735545)"
     id="g616"><path
       id="path618"
       style="fill:#008940;fill-opacity:1;fill-rule:nonzero;stroke:none"
       d="M 0,0 H -2.155 L -4.426,4.779 -0.512,4.976 0.976,1.895" /></g><g
     transform="matrix(1.3333333,0,0,-1.3333333,54.566625,11.119345)"
     id="g620"><path
       id="path622"
       style="fill:#231f20;fill-opacity:1;fill-rule:nonzero;stroke:none"
       d="M 0,0 H -2.35 L -4.884,5.33 -0.325,5.565 1.25,2.303 0.698,2.064 -0.704,4.968 -3.967,4.803 -1.96,0.576 H 0 Z" /></g><g
     transform="matrix(1.3333333,0,0,-1.3333333,58.905565,15.918845)"
     id="g624"><path
       id="path626"
       style="fill:#008940;fill-opacity:1;fill-rule:nonzero;stroke:none"
       d="M 0,0 H -2.025 L -3.767,5.601 0.185,5.878 1.111,2.939" /></g><g
     transform="matrix(1.3333333,0,0,-1.3333333,58.905565,16.305645)"
     id="g628"><path
       id="path630"
       style="fill:#231f20;fill-opacity:1;fill-rule:nonzero;stroke:none"
       d="M 0,0 H -2.251 L -4.167,6.152 0.407,6.472 1.398,3.311 0.819,3.147 -0.036,5.866 -3.373,5.628 -1.798,0.576 H 0 Z" /></g><g
     transform="matrix(1.3333333,0,0,-1.3333333,62.764495,19.778945)"
     id="g632"><path
       id="path634"
       style="fill:#008940;fill-opacity:1;fill-rule:nonzero;stroke:none"
       d="M 0,0 H -2.412 L -3.339,5.788 H 0.782 L 1.33,1.924" /></g><g
     transform="matrix(1.3333333,0,0,-1.3333333,62.764495,20.162545)"
     id="g636"><path
       id="path638"
       style="fill:#231f20;fill-opacity:1;fill-rule:nonzero;stroke:none"
       d="M 0,0 H -2.674 L -3.693,6.36 H 1.048 L 1.627,2.248 1.03,2.174 0.515,5.79 H -2.987 L -2.153,0.576 H 0 Z" /></g><g
     transform="matrix(1.3333333,0,0,-1.3333333,66.199025,25.152045)"
     id="g640"><path
       id="path642"
       style="fill:#008940;fill-opacity:1;fill-rule:nonzero;stroke:none"
       d="M 0,0 H -2.551 V 5.954 L 1.74,5.815 V 1.017" /></g><g
     transform="matrix(1.3333333,0,0,-1.3333333,66.199025,25.532445)"
     id="g644"><path
       id="path646"
       style="fill:#231f20;fill-opacity:1;fill-rule:nonzero;stroke:none"
       d="M 0,0 H -2.853 V 6.536 L 2.043,6.377 V 1.303 H 1.438 v 4.52 L -2.248,5.941 V 0.573 H 0 Z" /></g><g
     transform="matrix(1.3333333,0,0,-1.3333333,66.204095,32.030845)"
     id="g648"><path
       id="path650"
       style="fill:#008940;fill-opacity:1;fill-rule:nonzero;stroke:none"
       d="M 0,0 -1.797,0.74 0.685,6.612 4.217,5 3.002,1.395" /></g><g
     transform="matrix(1.3333333,0,0,-1.3333333,66.045295,32.382345)"
     id="g652"><path
       id="path654"
       style="fill:#231f20;fill-opacity:1;fill-rule:nonzero;stroke:none"
       d="M 0,0 -2.067,0.85 0.642,7.268 4.706,5.414 3.409,1.574 2.832,1.749 3.967,5.116 0.964,6.484 -1.288,1.157 0.24,0.527 Z" /></g><g
     transform="matrix(1.3333333,0,0,-1.3333333,64.656895,38.446045)"
     id="g656"><path
       id="path658"
       style="fill:#008940;fill-opacity:1;fill-rule:nonzero;stroke:none"
       d="M 0,0 -1.521,1.291 2.937,7.024 6.304,4.535 3.56,0.457" /></g><g
     transform="matrix(1.3333333,0,0,-1.3333333,64.385565,38.731245)"
     id="g660"><path
       id="path662"
       style="fill:#231f20;fill-opacity:1;fill-rule:nonzero;stroke:none"
       d="M 0,0 -1.724,1.464 3.083,7.646 6.913,4.817 4.021,0.52 3.508,0.828 6.101,4.685 3.2,6.829 -0.908,1.546 0.404,0.428 Z" /></g><g
     transform="matrix(1.3333333,0,0,-1.3333333,61.207695,44.736945)"
     id="g664"><path
       id="path666"
       style="fill:#008940;fill-opacity:1;fill-rule:nonzero;stroke:none"
       d="M 0,0 -1.122,1.05 4.662,6.524 8.153,3.04 4.257,-1.044" /></g><g
     transform="matrix(1.3333333,0,0,-1.3333333,67.186365,46.385945)"
     id="g668"><path
       id="path670"
       style="fill:#231f20;fill-opacity:1;fill-rule:nonzero;stroke:none"
       d="M 0,0 -0.449,0.384 3.256,4.272 0.172,7.353 -5.173,2.287 -4.269,1.442 -4.695,1.034 l -1.34,1.253 6.22,5.888 3.897,-3.89 z" /></g><g
     transform="matrix(1.3333333,0,0,-1.3333333,56.234765,50.947945)"
     id="g672"><path
       id="path674"
       style="fill:#008940;fill-opacity:1;fill-rule:nonzero;stroke:none"
       d="M 0,0 -1.64,2.166 6.436,5.829 9.129,1.686 4.152,-1.349" /></g><g
     transform="matrix(1.3333333,0,0,-1.3333333,61.988095,53.067745)"
     id="g676"><path
       id="path678"
       style="fill:#231f20;fill-opacity:1;fill-rule:nonzero;stroke:none"
       d="M 0,0 -0.33,0.482 4.397,3.366 2.007,7.048 -5.498,3.643 -4.067,1.757 -4.56,1.423 -6.412,3.863 2.237,7.789 5.229,3.186 Z" /></g><g
     transform="matrix(1.3333333,0,0,-1.3333333,48.439695,53.798845)"
     id="g680"><path
       id="path682"
       style="fill:#008940;fill-opacity:1;fill-rule:nonzero;stroke:none"
       d="m 0,0 3.029,-5.017 8.667,3.188 -3.199,4.938 z" /></g><g
     transform="matrix(1.3333333,0,0,-1.3333333,52.302495,60.962945)"
     id="g684"><path
       id="path686"
       style="fill:#231f20;fill-opacity:1;fill-rule:nonzero;stroke:none"
       d="M 0,0 -3.334,5.524 5.725,8.838 9.248,3.402 Z M -2.459,5.225 0.265,0.712 8.349,3.687 5.472,8.126 Z" /></g><g
     id="g688"
     transform="matrix(1.3333333,0,0,-1.3333333,-129.81524,183.32325)"><g
       clip-path="url(#clipPath694)"
       id="g690"><g
         transform="translate(100.6742,82.2841)"
         id="g696"><path
           id="path698"
           style="fill:#231f20;fill-opacity:1;fill-rule:nonzero;stroke:none"
           d="m 0,0 1.869,5.502 -3.788,2.405 0.51,0.208 c 0.214,0.088 5.3,2.158 9.382,2.333 L 8.182,10.459 9.253,8.167 8.698,7.934 7.793,9.864 C 4.601,9.672 0.735,8.312 -0.646,7.794 L 2.585,5.741 0.94,0.891 7.846,2.992 8.032,2.443 Z" /></g><g
         transform="translate(107.5261,89.818)"
         id="g700"><path
           id="path702"
           style="fill:#008940;fill-opacity:1;fill-rule:nonzero;stroke:none"
           d="m 0,0 1.852,-8.203 c 0,0 8.161,1.909 15.902,1.909 7.74,0 15.646,-1.909 15.646,-1.909 L 35.753,0 c 0,0 -0.839,0.299 -2.513,0.667 C 30.42,1.283 25.245,2.092 17.754,1.99 5.809,1.832 0,0 0,0" /></g><g
         transform="translate(109.1475,81.2645)"
         id="g704"><path
           id="path706"
           style="fill:#242021;fill-opacity:1;fill-rule:nonzero;stroke:none"
           d="m 0,0 -1.975,8.746 0.257,0.079 c 0.061,0.019 5.989,1.848 17.845,2.007 7.43,0.098 12.592,-0.683 15.559,-1.333 1.676,-0.367 2.518,-0.663 2.556,-0.676 l 0.26,-0.091 -2.509,-8.729 -0.29,0.068 C 31.625,0.091 23.741,1.974 16.133,1.974 8.521,1.974 0.385,0.091 0.306,0.071 Z m 16.133,2.547 c 6.859,0 13.93,-1.51 15.431,-1.851 L 33.769,8.37 C 33.404,8.48 32.661,8.697 31.55,8.938 28.616,9.582 23.502,10.357 16.137,10.256 5.764,10.122 -0.015,8.699 -1.267,8.356 l 1.731,-7.66 c 1.557,0.343 8.818,1.851 15.669,1.851" /></g><g
         transform="translate(149.9166,82.3285)"
         id="g708"><path
           id="path710"
           style="fill:#231f20;fill-opacity:1;fill-rule:nonzero;stroke:none"
           d="m 0,0 -0.612,0.18 c -3.283,0.964 -6.991,1.978 -7.449,1.978 h -0.01 L -8.094,2.73 c 0.609,0.025 5.169,-1.277 7.053,-1.822 l -1.99,4.66 3.872,2.173 c -1.524,0.5 -5.798,1.437 -8.805,2.043 L -8.709,8.046 -9.27,8.26 l 0.937,2.191 0.247,-0.053 C -7.188,10.217 0.704,8.619 1.67,8.021 L 2.077,7.77 -2.274,5.324 Z" /></g></g></g><g
     transform="matrix(1.3333333,0,0,-1.3333333,60.872095,63.748445)"
     id="g712"><path
       id="path714"
       style="fill:#231f20;fill-opacity:1;fill-rule:nonzero;stroke:none"
       d="M 0,0 -1.513,2.627 -0.981,2.904 0.532,0.277 Z" /></g><g
     transform="matrix(1.3333333,0,0,-1.3333333,13.925295,63.712145)"
     id="g716"><path
       id="path718"
       style="fill:#231f20;fill-opacity:1;fill-rule:nonzero;stroke:none"
       d="M 0,0 -0.561,0.219 0.575,2.848 1.136,2.629 Z" /></g><g
     id="g720"
     transform="matrix(1.3333333,0,0,-1.3333333,-129.81524,183.32325)"><g
       clip-path="url(#clipPath726)"
       id="g722"><g
         transform="translate(117.375,88.6808)"
         id="g728"><path
           id="path730"
           style="fill:#ffffff;fill-opacity:1;fill-rule:nonzero;stroke:none"
           d="m 0,0 -0.904,-0.096 0.436,-3.595 c -0.052,0.056 -0.127,0.135 -0.224,0.241 -0.038,0.07 -0.099,0.162 -0.184,0.286 -0.222,0.288 -0.492,0.518 -0.823,0.68 -0.332,0.165 -0.681,0.241 -1.05,0.228 L -3.3,-1.675 c 0.654,0.553 1.34,0.989 2.066,1.302 l -0.03,0.235 -2.377,-0.257 -0.401,0.318 3.636,0.394 z m -0.947,-2.753 -0.224,1.829 c -0.417,-0.192 -0.864,-0.474 -1.333,-0.85 0.664,-0.192 1.181,-0.518 1.557,-0.979" /></g><g
         transform="translate(119.1349,88.7896)"
         id="g732"><path
           id="path734"
           style="fill:#ffffff;fill-opacity:1;fill-rule:nonzero;stroke:none"
           d="m 0,0 -0.922,-0.068 0.308,-3.663 -0.385,0.338 -0.222,2.62 c -0.016,0.206 -0.107,0.37 -0.275,0.499 -0.166,0.129 -0.358,0.17 -0.573,0.126 l -0.403,0.324 c 0.112,0.019 0.213,0.036 0.307,0.043 0.32,0.02 0.559,-0.043 0.715,-0.208 0.093,-0.087 0.213,-0.299 0.368,-0.639 -0.14,0.461 -0.231,0.969 -0.279,1.519 l 0.153,-0.104 c 0.045,-0.219 0.13,-0.386 0.255,-0.499 l 0.555,0.039 z" /></g><g
         transform="translate(120.9331,88.2227)"
         id="g736"><path
           id="path738"
           style="fill:#ffffff;fill-opacity:1;fill-rule:nonzero;stroke:none"
           d="m 0,0 c 0.011,-0.146 -0.034,-0.299 -0.131,-0.461 -0.096,-0.164 -0.213,-0.276 -0.348,-0.329 -0.053,-0.021 -0.14,-0.035 -0.257,-0.041 -0.232,-0.011 -0.435,0.06 -0.613,0.214 -0.176,0.156 -0.272,0.342 -0.285,0.562 -0.009,0.197 0.064,0.381 0.221,0.557 0.157,0.178 0.34,0.273 0.547,0.284 0.227,0.011 0.425,-0.063 0.594,-0.221 C -0.1,0.408 -0.012,0.219 0,0 m 0.836,-3.263 c -0.619,0.507 -1.33,0.992 -2.138,1.462 l -0.046,0.792 c 0.579,-0.392 1.301,-1.045 2.166,-1.952 z m -1.22,3.425 C -0.396,0.356 -0.482,0.444 -0.647,0.435 -0.81,0.428 -0.951,0.351 -1.073,0.197 c -0.123,-0.148 -0.18,-0.296 -0.172,-0.449 0.012,-0.174 0.087,-0.258 0.231,-0.25 0.087,0.006 0.204,0.058 0.353,0.157 0.143,0.095 0.23,0.185 0.261,0.268 0.017,0.043 0.02,0.124 0.016,0.239" /></g><g
         transform="translate(125.6802,88.9926)"
         id="g740"><path
           id="path742"
           style="fill:#ffffff;fill-opacity:1;fill-rule:nonzero;stroke:none"
           d="m 0,0 -0.921,-0.016 0.062,-3.591 -0.383,0.334 -0.032,1.944 c -0.003,0.112 -0.054,0.216 -0.157,0.309 -0.1,0.094 -0.21,0.14 -0.329,0.137 -0.198,-0.002 -0.298,-0.112 -0.293,-0.329 0,-0.024 0.011,-0.104 0.04,-0.241 L -2.17,-1.51 v 0.011 c 0,0.024 -0.025,0.077 -0.073,0.153 -0.109,0.159 -0.209,0.269 -0.303,0.332 -0.116,0.079 -0.261,0.118 -0.44,0.115 -0.176,-0.008 -0.335,-0.069 -0.468,-0.189 -0.131,-0.121 -0.198,-0.263 -0.196,-0.433 0.005,-0.279 0.174,-0.441 0.499,-0.488 -0.076,0.085 -0.115,0.178 -0.115,0.268 -0.002,0.113 0.037,0.206 0.117,0.275 0.082,0.074 0.178,0.109 0.298,0.109 0.137,0.006 0.252,-0.055 0.341,-0.175 0.089,-0.124 0.13,-0.255 0.135,-0.395 0,-0.123 -0.062,-0.225 -0.197,-0.307 -0.111,-0.071 -0.233,-0.107 -0.366,-0.109 -0.323,-0.006 -0.577,0.079 -0.768,0.257 -0.189,0.178 -0.288,0.419 -0.294,0.721 -0.003,0.25 0.065,0.466 0.203,0.655 0.152,0.211 0.358,0.321 0.608,0.323 0.296,0.006 0.562,-0.133 0.798,-0.421 0,0.076 0.049,0.164 0.151,0.271 0.102,0.101 0.192,0.156 0.269,0.156 0.31,0.005 0.54,-0.197 0.689,-0.606 l -0.015,0.968 -2.866,-0.044 -0.391,0.351 4.162,0.066 z" /></g><g
         transform="translate(127.4619,88.9297)"
         id="g744"><path
           id="path746"
           style="fill:#ffffff;fill-opacity:1;fill-rule:nonzero;stroke:none"
           d="m 0,0 -0.927,0.016 -0.067,-3.67 -0.347,0.37 0.048,2.626 c 0.004,0.206 -0.073,0.379 -0.224,0.524 -0.153,0.142 -0.338,0.202 -0.557,0.178 l -0.371,0.353 c 0.117,0.014 0.218,0.02 0.313,0.02 0.319,-0.006 0.55,-0.096 0.691,-0.274 0.082,-0.093 0.18,-0.316 0.297,-0.669 -0.089,0.474 -0.129,0.984 -0.119,1.538 l 0.14,-0.115 c 0.025,-0.225 0.092,-0.401 0.204,-0.521 l 0.554,-0.011 z" /></g><g
         transform="translate(129.8944,88.8473)"
         id="g748"><path
           id="path750"
           style="fill:#ffffff;fill-opacity:1;fill-rule:nonzero;stroke:none"
           d="m 0,0 c -0.181,0.003 -0.381,-0.035 -0.609,-0.109 -0.846,-0.275 -1.291,-0.922 -1.335,-1.938 -0.022,-0.491 0.165,-0.85 0.557,-1.084 0.033,-0.018 0.086,-0.027 0.154,-0.032 0.071,-0.003 0.102,0.005 0.092,0.025 -0.044,0.005 -0.09,0.054 -0.138,0.156 -0.046,0.098 -0.069,0.172 -0.066,0.225 0.004,0.101 0.057,0.189 0.155,0.265 0.102,0.075 0.204,0.113 0.314,0.104 0.088,-0.002 0.153,-0.029 0.202,-0.081 0.155,-0.083 0.228,-0.214 0.219,-0.396 -0.005,-0.164 -0.076,-0.298 -0.214,-0.403 -0.135,-0.104 -0.292,-0.15 -0.468,-0.145 -0.395,0.014 -0.703,0.222 -0.923,0.625 -0.182,0.337 -0.264,0.71 -0.245,1.113 0.026,0.612 0.301,1.185 0.822,1.722 l -1.118,0.041 -0.352,0.373 2.604,-0.104 z" /></g><g
         transform="translate(133.5621,88.565)"
         id="g752"><path
           id="path754"
           style="fill:#ffffff;fill-opacity:1;fill-rule:nonzero;stroke:none"
           d="m 0,0 -2.996,0.219 -0.12,-1.466 c 0.075,0.033 0.191,0.107 0.346,0.222 0.203,0.154 0.318,0.239 0.346,0.257 0.279,0.179 0.626,0.33 1.046,0.447 l 0.607,-0.498 c -0.383,-0.584 -0.59,-1.122 -0.63,-1.615 -0.003,-0.039 -0.003,-0.091 -0.003,-0.165 0.003,-0.074 0,-0.129 -0.005,-0.165 -0.002,-0.07 0.014,-0.317 0.053,-0.742 l -0.237,0.134 c -0.09,0.631 -0.121,1.116 -0.095,1.451 0.028,0.318 0.088,0.619 0.18,0.91 -0.339,-0.088 -0.65,-0.244 -0.936,-0.469 -0.288,-0.22 -0.508,-0.482 -0.659,-0.781 l -0.455,0.52 0.162,1.994 -0.376,0.024 -0.346,0.386 3.772,-0.279 z" /></g><g
         transform="translate(137.6072,88.0694)"
         id="g756"><path
           id="path758"
           style="fill:#ffffff;fill-opacity:1;fill-rule:nonzero;stroke:none"
           d="m 0,0 -0.838,0.101 -0.471,-3.545 -0.327,0.395 0.307,2.161 c 0.02,0.128 -0.041,0.304 -0.182,0.534 -0.138,0.227 -0.273,0.348 -0.405,0.365 -0.079,0.008 -0.162,-0.006 -0.252,-0.047 -0.107,-0.05 -0.165,-0.107 -0.174,-0.179 0.164,-0.144 0.272,-0.254 0.322,-0.328 0.112,-0.14 0.158,-0.277 0.139,-0.409 -0.04,-0.31 -0.219,-0.441 -0.531,-0.405 -0.217,0.024 -0.382,0.172 -0.502,0.441 -0.062,-0.101 -0.155,-0.187 -0.278,-0.258 -0.126,-0.068 -0.246,-0.095 -0.364,-0.082 -0.132,0.016 -0.232,0.079 -0.302,0.192 -0.068,0.112 -0.095,0.233 -0.078,0.367 0.018,0.132 0.115,0.277 0.285,0.433 0.173,0.16 0.323,0.239 0.447,0.236 -0.06,0.225 -0.172,0.373 -0.337,0.439 -0.072,0.025 -0.27,0.055 -0.592,0.09 l -0.322,0.395 0.756,-0.093 c 0.192,-0.022 0.361,-0.107 0.503,-0.255 0.145,-0.148 0.225,-0.31 0.239,-0.49 0.193,0.293 0.462,0.471 0.817,0.523 0.081,0.013 0.14,0.019 0.167,0.016 0.117,-0.016 0.283,-0.203 0.492,-0.567 0.194,-0.329 0.305,-0.567 0.325,-0.705 0.022,0.762 0.052,1.36 0.097,1.796 0.092,-0.096 0.157,-0.173 0.198,-0.236 0.012,-0.082 0.021,-0.162 0.029,-0.239 0.02,-0.122 0.085,-0.192 0.197,-0.21 L -0.32,0.4 Z" /></g></g></g><g
     transform="matrix(1.3333333,0,0,-1.3333333,24.271695,6.9917453)"
     id="g760"><path
       id="path762"
       style="fill:#008940;fill-opacity:1;fill-rule:nonzero;stroke:none"
       d="M 0,0 H 1.888 L 5.505,3.922 1.888,4.282 0.09,2.396" /></g><g
     transform="matrix(1.3333333,0,0,-1.3333333,26.973295,7.3764453)"
     id="g764"><path
       id="path766"
       style="fill:#231f20;fill-opacity:1;fill-rule:nonzero;stroke:none"
       d="m 0,0 h -2.026 v 0.576 h 1.751 l 3.143,3.408 -2.885,0.282 -1.691,-1.776 -0.453,0.386 1.9,1.996 4.349,-0.433 z" /></g><g
     transform="matrix(1.3333333,0,0,-1.3333333,19.819165,10.311345)"
     id="g768"><path
       id="path770"
       style="fill:#008940;fill-opacity:1;fill-rule:nonzero;stroke:none"
       d="M 0,0 H 2.155 L 4.428,4.779 0.517,4.979 -0.974,1.895" /></g><g
     transform="matrix(1.3333333,0,0,-1.3333333,22.952765,10.692045)"
     id="g772"><path
       id="path774"
       style="fill:#231f20;fill-opacity:1;fill-rule:nonzero;stroke:none"
       d="m 0,0 h -2.351 v 0.576 h 1.959 L 1.618,4.804 -1.645,4.966 -3.047,2.062 -3.6,2.301 -2.027,5.563 2.533,5.33 Z" /></g><g
     transform="matrix(1.3333333,0,0,-1.3333333,15.480225,15.494745)"
     id="g776"><path
       id="path778"
       style="fill:#008940;fill-opacity:1;fill-rule:nonzero;stroke:none"
       d="M 0,0 H 2.025 L 3.771,5.601 -0.184,5.881 -1.108,2.942" /></g><g
     transform="matrix(1.3333333,0,0,-1.3333333,18.481825,15.878445)"
     id="g780"><path
       id="path782"
       style="fill:#231f20;fill-opacity:1;fill-rule:nonzero;stroke:none"
       d="m 0,0 h -2.251 v 0.573 h 1.797 L 1.12,5.628 -2.215,5.864 -3.071,3.145 -3.653,3.309 -2.657,6.47 1.917,6.149 Z" /></g><g
     transform="matrix(1.3333333,0,0,-1.3333333,11.622095,19.354545)"
     id="g784"><path
       id="path786"
       style="fill:#008940;fill-opacity:1;fill-rule:nonzero;stroke:none"
       d="m 0,0 h 2.414 l 0.924,5.79 h -4.12 L -1.329,1.924" /></g><g
     transform="matrix(1.3333333,0,0,-1.3333333,15.187695,19.735245)"
     id="g788"><path
       id="path790"
       style="fill:#231f20;fill-opacity:1;fill-rule:nonzero;stroke:none"
       d="m 0,0 h -2.674 v 0.573 h 2.155 l 0.83,5.212 h -3.5 l -0.514,-3.613 -0.601,0.077 0.581,4.109 h 4.741 z" /></g><g
     transform="matrix(1.3333333,0,0,-1.3333333,8.1883647,24.727745)"
     id="g792"><path
       id="path794"
       style="fill:#008940;fill-opacity:1;fill-rule:nonzero;stroke:none"
       d="M 0,0 H 2.552 V 5.954 L -1.743,5.817 V 1.022" /></g><g
     transform="matrix(1.3333333,0,0,-1.3333333,11.994365,25.108345)"
     id="g796"><path
       id="path798"
       style="fill:#231f20;fill-opacity:1;fill-rule:nonzero;stroke:none"
       d="m 0,0 h -2.854 v 0.576 h 2.246 V 5.941 L -4.29,5.823 V 1.307 H -4.9 V 6.38 L 0,6.539 Z" /></g><g
     transform="matrix(1.3333333,0,0,-1.3333333,8.1796947,31.607645)"
     id="g800"><path
       id="path802"
       style="fill:#008940;fill-opacity:1;fill-rule:nonzero;stroke:none"
       d="M 0,0 1.8,0.737 -0.683,6.615 -4.216,5 -3,1.398" /></g><g
     transform="matrix(1.3333333,0,0,-1.3333333,8.3403647,31.958145)"
     id="g804"><path
       id="path806"
       style="fill:#231f20;fill-opacity:1;fill-rule:nonzero;stroke:none"
       d="M 0,0 -0.242,0.527 1.287,1.154 -0.963,6.486 -3.966,5.116 -2.831,1.749 -3.408,1.574 -4.704,5.417 -0.641,7.27 2.068,0.852 Z" /></g><g
     transform="matrix(1.3333333,0,0,-1.3333333,9.7306247,38.021945)"
     id="g808"><path
       id="path810"
       style="fill:#008940;fill-opacity:1;fill-rule:nonzero;stroke:none"
       d="M 0,0 1.52,1.291 -2.94,7.024 -6.304,4.534 -3.562,0.46" /></g><g
     transform="matrix(1.3333333,0,0,-1.3333333,9.9990247,38.307145)"
     id="g812"><path
       id="path814"
       style="fill:#231f20;fill-opacity:1;fill-rule:nonzero;stroke:none"
       d="M 0,0 -0.403,0.428 0.909,1.546 -3.2,6.831 -6.102,4.685 -3.508,0.831 -4.018,0.52 -6.911,4.816 -3.083,7.646 1.725,1.464 Z" /></g><g
     transform="matrix(1.3333333,0,0,-1.3333333,13.175025,44.312845)"
     id="g816"><path
       id="path818"
       style="fill:#008940;fill-opacity:1;fill-rule:nonzero;stroke:none"
       d="M 0,0 1.124,1.05 -4.661,6.527 -8.153,3.043 -4.257,-1.042" /></g><g
     transform="matrix(1.3333333,0,0,-1.3333333,7.1982247,45.961645)"
     id="g820"><path
       id="path822"
       style="fill:#231f20;fill-opacity:1;fill-rule:nonzero;stroke:none"
       d="m 0,0 -4.083,4.282 3.9,3.893 L 6.035,2.287 4.696,1.034 4.27,1.44 5.175,2.287 -0.172,7.352 -3.256,4.274 0.451,0.386 Z" /></g><g
     transform="matrix(1.3333333,0,0,-1.3333333,18.148895,50.519545)"
     id="g824"><path
       id="path826"
       style="fill:#008940;fill-opacity:1;fill-rule:nonzero;stroke:none"
       d="m 0,0 1.642,2.16 -8.078,3.668 -2.69,-4.143 4.977,-3.037" /></g><g
     transform="matrix(1.3333333,0,0,-1.3333333,12.396495,52.643645)"
     id="g828"><path
       id="path830"
       style="fill:#231f20;fill-opacity:1;fill-rule:nonzero;stroke:none"
       d="M 0,0 -5.226,3.188 -2.235,7.791 6.411,3.866 4.561,1.426 4.069,1.76 5.497,3.643 -2.005,7.045 -4.397,3.366 0.329,0.485 Z" /></g><g
     transform="matrix(1.3333333,0,0,-1.3333333,25.945695,53.371645)"
     id="g832"><path
       id="path834"
       style="fill:#008940;fill-opacity:1;fill-rule:nonzero;stroke:none"
       d="m 0,0 -3.028,-5.017 -8.667,3.183 3.199,4.941 z" /></g><g
     transform="matrix(1.3333333,0,0,-1.3333333,22.086765,60.535645)"
     id="g836"><path
       id="path838"
       style="fill:#231f20;fill-opacity:1;fill-rule:nonzero;stroke:none"
       d="m 0,0 -9.248,3.397 3.52,5.436 9.061,-3.314 z m -8.351,3.684 8.083,-2.972 2.724,4.513 -7.931,2.898 z" /></g><g
     id="g840"
     transform="matrix(1.3333333,0,0,-1.3333333,-129.81524,183.32325)"><g
       clip-path="url(#clipPath846)"
       id="g842"><g
         transform="translate(121.781,114.0558)"
         id="g848"><path
           id="path850"
           style="fill:#ffffff;fill-opacity:1;fill-rule:nonzero;stroke:none"
           d="m 0,0 c -0.014,-2.023 -0.025,-4.052 -0.041,-6.075 v 0.035 c -0.23,0.321 -0.108,0.948 -0.205,1.376 -0.184,0.804 -0.378,1.571 -0.762,2.202 -0.163,0.263 -0.452,0.792 -0.927,0.704 v -0.016 c 0.117,-0.304 0.651,-1.705 -0.309,-1.568 -1.012,0.151 -1.099,1.604 -0.517,2.207 0.28,0.288 0.865,0.244 1.196,0.033 0.44,-0.282 1.024,-1.308 1.092,-1.895 0.013,0.006 0.025,0.014 0.041,0.02 v 3.045 c -1.175,0.17 -2.35,0.332 -3.525,0.499 -0.018,-1.979 -0.039,-3.958 -0.062,-5.938 -0.038,0.025 -0.01,0.003 -0.038,0.036 -0.384,0.321 -0.544,1.045 -0.415,1.771 0.029,1.401 0.057,2.802 0.083,4.2 -0.227,0.033 -0.453,0.069 -0.679,0.101 -0.135,0.214 -0.273,0.425 -0.414,0.639 0.379,-0.049 0.758,-0.101 1.136,-0.153 -0.155,0.252 -0.399,0.48 -0.434,0.822 -0.072,0.737 0.865,1.785 1.73,1.636 1.078,-0.183 2.462,-1.447 2.618,-2.39 C -1.125,1.793 -1.355,2.585 -2.286,2.906 -3.223,3.229 -3.724,2.701 -4.04,2.185 -4.117,2.05 -4.298,1.878 -4.244,1.65 -4.066,0.921 -3.601,1.137 -2.782,0.998 -1.917,0.866 -1.05,0.734 -0.186,0.603 0.118,0.545 0.472,0.562 0.701,0.446 0.832,0.247 0.962,0.047 1.092,-0.154 0.728,-0.104 0.364,-0.052 0,0" /></g><g
         transform="translate(135.2355,114.969)"
         id="g852"><path
           id="path854"
           style="fill:#ffffff;fill-opacity:1;fill-rule:nonzero;stroke:none"
           d="M 0,0 C -0.007,0.15 -0.013,0.306 -0.02,0.46 0.674,0.734 1.371,1.009 2.065,1.288 1.93,1.453 1.793,1.622 1.661,1.79 0.02,1.132 -1.616,0.477 -3.254,-0.184 c 0.133,-0.159 0.268,-0.321 0.403,-0.483 0.816,0.324 1.631,0.647 2.447,0.966 0.007,-0.16 0.015,-0.319 0.024,-0.483 -0.726,-0.899 -1.5,-1.7 -2.044,-2.799 0.194,-0.26 0.383,-0.523 0.575,-0.784 0.094,-0.074 0.632,-0.044 0.808,-0.143 0.596,-0.329 0.993,-1.031 1.128,-1.79 0.048,-0.044 0.098,-0.079 0.15,-0.123 -0.064,1.639 -0.133,3.279 -0.194,4.915 0.007,0.013 0.017,0.028 0.022,0.042 0.807,0.248 1.218,-0.453 1.191,-1.251 C 1.159,-2.043 1.04,-1.9 0.852,-1.974 0.372,-2.13 0.286,-3.189 0.766,-3.408 2.121,-3.389 1.588,0.696 0,0 m -0.234,-4.313 c -0.176,0.628 -0.705,1.289 -1.382,1.451 0.372,0.649 0.83,1.222 1.255,1.812 0.048,-1.086 0.099,-2.175 0.15,-3.263 z" /></g></g></g></svg>
